<svg focusable="false" aria-hidden="true" viewBox="0 0 32 33" width="32" height="33" fill="none" xmlns="http://www.w3.org/2000/svg" class="MuiSvgIcon-root MuiSvgIcon-sizeMd buddhaworlds-light-4z70un"><g clip-path="url(#clip0_1711_2146)"><path d="M32 16.1572C32 7.31973 24.8375 0.157227 16 0.157227C7.1625 0.157227 0 7.31973 0 16.1572C0 24.9947 7.1625 32.1572 16 32.1572C16.0938 32.1572 16.1875 32.1572 16.2812 32.151V19.701H12.8438V15.6947H16.2812V12.7447C16.2812 9.32598 18.3688 7.46348 21.4188 7.46348C22.8813 7.46348 24.1375 7.56973 24.5 7.61973V11.1947H22.4C20.7437 11.1947 20.4188 11.9822 20.4188 13.1385V15.6885H24.3875L23.8687 19.6947H20.4188V31.5385C27.1063 29.6197 32 23.4635 32 16.1572Z" fill="#EFE6B4"></path></g><defs><clipPath id="clip0_1711_2146"><rect width="32" height="32" fill="white" transform="translate(0 0.157227)"></rect></clipPath></defs></svg>