<svg width="20" height="20" viewBox="0 0 20 20" fill="none" xmlns="http://www.w3.org/2000/svg"><path d="M12.3242 3.875C12.8369 3.875 13.2812 4.31934 13.2812 4.83203C13.2812 5.07129 13.1787 5.27637 13.042 5.44727L9.45312 9.54883V16.1797C9.45312 16.6582 9.07715 17 8.59863 17C8.42773 17 8.25684 16.9658 8.08594 16.8633L5.48828 14.8809C5.21484 14.6758 5.07812 14.3682 5.07812 13.9922V9.54883L1.45508 5.44727C1.31836 5.27637 1.25 5.07129 1.25 4.83203C1.25 4.31934 1.66016 3.875 2.17285 3.875H12.3242ZM6.17188 9.34375V13.9922L8.35938 15.667V9.34375C8.35938 9.24121 8.39355 9.10449 8.46191 9.00195L11.9824 4.96875H2.51465L6.03516 9.00195C6.10352 9.10449 6.1377 9.24121 6.1377 9.34375H6.17188ZM18.2031 15.3594C18.4766 15.3594 18.75 15.6328 18.75 15.9062C18.75 16.2139 18.4766 16.4531 18.2031 16.4531H12.7344C12.4268 16.4531 12.1875 16.2139 12.1875 15.9062C12.1875 15.6328 12.4268 15.3594 12.7344 15.3594H18.2031ZM12.1875 10.4375C12.1875 10.1641 12.4268 9.89062 12.7344 9.89062H18.2031C18.4766 9.89062 18.75 10.1641 18.75 10.4375C18.75 10.7451 18.4766 10.9844 18.2031 10.9844H12.7344C12.4268 10.9844 12.1875 10.7451 12.1875 10.4375ZM18.2031 4.42188C18.4766 4.42188 18.75 4.69531 18.75 4.96875C18.75 5.27637 18.4766 5.51562 18.2031 5.51562H14.9219C14.6143 5.51562 14.375 5.27637 14.375 4.96875C14.375 4.69531 14.6143 4.42188 14.9219 4.42188H18.2031Z" fill="white"></path></svg>