<svg width="200" height="48" viewBox="0 0 200 48" fill="none" xmlns="http://www.w3.org/2000/svg">
    <path d="M39.9478 23.9739C39.9478 34.9233 31.1452 43.8108 20.2284 43.9478C30.2251 43.8108 38.2838 35.6607 38.2838 25.6313C38.2838 15.602 30.0881 7.32137 19.9739 7.32137C9.85971 7.32137 1.65742 15.5171 1.65742 25.6313C1.65742 35.7455 9.71615 43.8042 19.7129 43.9478C8.80261 43.8108 0 34.9233 0 23.9739C0 13.0245 8.93964 4 19.9739 4C31.0082 4 39.9478 12.9396 39.9478 23.9739Z"
          fill="url(#paint0_linear_954_13480)"/>
    <path d="M22.7474 36.7113C22.6952 36.6656 22.6364 36.6199 22.5777 36.5742C21.3966 35.6607 20.5288 34.4013 20.2417 32.9396C20.072 32.0914 19.9806 31.2757 19.9806 30.7667V31.1648L19.9676 30.7667C19.9676 31.2757 19.8762 32.0914 19.7066 32.9396C19.4195 34.4013 18.5516 35.6672 17.3705 36.5742C17.3118 36.6199 17.2596 36.6656 17.2009 36.7113C16.3134 37.4747 15.7588 38.5971 15.7588 39.8564C15.7588 42.1664 17.6511 44.0392 19.9741 44C22.2971 44.0392 24.1895 42.1664 24.1895 39.8564C24.1895 38.5971 23.6283 37.4747 22.7474 36.7113Z"
          fill="url(#paint1_linear_954_13480)"/>
    <path d="M47.3477 31.9804V31.7521H47.6413C48.0524 31.7521 48.3982 31.6933 48.6788 31.5693C48.9594 31.4454 49.1682 31.2627 49.3052 31.0212C49.4423 30.7798 49.5075 30.4731 49.5075 30.1077V17.5008C49.5075 17.1485 49.4423 16.8614 49.3052 16.633C49.1682 16.4046 48.9594 16.2349 48.6788 16.124C48.3982 16.0131 48.0524 15.9543 47.6413 15.9543H47.3477V15.726H53.4488C55.3933 15.726 56.8485 16.0522 57.8273 16.7047C58.8061 17.3573 59.2955 18.323 59.2955 19.5954C59.2955 20.3524 59.1323 21.0049 58.8061 21.54C58.4798 22.0816 57.9969 22.4992 57.3509 22.8059C56.7049 23.1126 55.8958 23.3018 54.93 23.3736V23.4193C56.7375 23.4976 58.0295 23.9087 58.8126 24.6591C59.5956 25.4095 59.9871 26.3948 59.9871 27.6085C59.9871 29.0832 59.5043 30.1795 58.545 30.8972C57.5793 31.615 56.1111 31.9804 54.1405 31.9804H47.3607H47.3477ZM53.3835 23.3605C54.2188 23.3605 54.8909 23.2431 55.3999 23.0082C55.9088 22.7733 56.2808 22.3948 56.5157 21.8728C56.7506 21.3507 56.868 20.6656 56.868 19.8108C56.868 18.4144 56.6005 17.4225 56.0589 16.8418C55.5173 16.261 54.6168 15.9674 53.3379 15.9674H51.811V23.3605H53.3835ZM54.0165 31.7586C55.2889 31.7586 56.1959 31.4388 56.7375 30.7994C57.2791 30.1599 57.5467 29.1028 57.5467 27.615C57.5467 26.6428 57.4292 25.8662 57.1943 25.2855C56.9594 24.7047 56.5875 24.2741 56.0785 24C55.5695 23.726 54.8974 23.5889 54.0622 23.5889H51.811V31.7586H54.0165Z"
          fill="url(#paint2_linear_954_13480)"/>
    <path d="M67.315 32.1957C66.0622 32.1957 65.1291 31.8629 64.5092 31.2038C63.8893 30.5448 63.5826 29.4812 63.5826 28.0195V22.6883C63.5826 22.2055 63.5304 21.827 63.4195 21.5464C63.315 21.2658 63.1323 21.0701 62.8779 20.9526C62.6234 20.8286 62.271 20.7699 61.8338 20.7699H61.7686V20.5546H65.5858V28.1239C65.5858 29.0309 65.6511 29.7617 65.7751 30.3099C65.9056 30.858 66.1209 31.256 66.4276 31.517C66.7343 31.7715 67.1389 31.902 67.6544 31.902C68.2938 31.902 68.8224 31.7324 69.24 31.3996C69.6576 31.0668 69.9774 30.5774 70.1862 29.9314C70.4015 29.2854 70.5059 28.5089 70.5059 27.5953V22.6949C70.5059 22.212 70.4537 21.8335 70.3428 21.5529C70.2384 21.2723 70.0557 21.0766 69.8012 20.9591C69.5467 20.8352 69.1943 20.7764 68.7571 20.7764H68.6919V20.5611H72.5092V29.8792C72.5092 30.3621 72.5614 30.7405 72.6723 31.0211C72.7832 31.3017 72.9594 31.4909 73.2139 31.6084C73.4684 31.7193 73.8208 31.7781 74.258 31.7781H74.3232V31.9934H70.656V29.0701H70.6103C70.4994 29.7944 70.3167 30.3686 70.0687 30.7862C69.8208 31.2038 69.5336 31.517 69.2139 31.7128C68.8942 31.9151 68.5679 32.0456 68.2351 32.1108C67.9023 32.1761 67.5891 32.2087 67.3085 32.2087L67.315 32.1957Z"
          fill="url(#paint3_linear_954_13480)"/>
    <path d="M80.2742 32.1958C79.3476 32.1958 78.5711 31.9739 77.9317 31.5237C77.2922 31.0734 76.8093 30.4078 76.483 29.5204C76.1568 28.633 75.9937 27.5432 75.9937 26.2447C75.9937 24.9462 76.1503 23.8434 76.47 22.969C76.7897 22.0946 77.2661 21.4356 77.899 20.9984C78.532 20.5612 79.3085 20.3393 80.2351 20.3393C81.1617 20.3393 81.9578 20.6003 82.5059 21.1158C83.054 21.6378 83.4194 22.4339 83.6021 23.5171H83.6413C83.6282 23.0082 83.6152 22.5057 83.6087 22.0163C83.6021 21.5269 83.5956 21.0767 83.5956 20.6721V17.6574C83.5956 17.2594 83.5369 16.9396 83.426 16.6982C83.3085 16.4568 83.1258 16.2806 82.8713 16.1631C82.6168 16.0522 82.2775 15.9935 81.8468 15.9935H81.7816V15.7781H85.5989V30.1272C85.5989 30.5122 85.6576 30.8254 85.7685 31.0669C85.8795 31.3083 86.0687 31.4845 86.3362 31.602C86.5972 31.7129 86.9366 31.7716 87.3477 31.7716H87.5173V31.9869H83.6152V28.9788H83.576C83.3933 30.075 83.0279 30.8842 82.4798 31.4062C81.9317 31.9347 81.1943 32.1958 80.2742 32.1958ZM80.6397 31.876C81.6511 31.876 82.395 31.4127 82.8778 30.4927C83.3607 29.5726 83.6021 28.1566 83.6021 26.2512C83.6021 25.0179 83.4977 23.9869 83.2954 23.1582C83.0866 22.336 82.7734 21.7096 82.3493 21.292C81.9251 20.8744 81.364 20.6656 80.6658 20.6656C80.0393 20.6656 79.5369 20.8483 79.1519 21.2202C78.7669 21.5922 78.4928 22.186 78.3232 23.0016C78.1535 23.8173 78.0687 24.894 78.0687 26.2316C78.0687 27.5693 78.1535 28.6721 78.3232 29.5073C78.4928 30.336 78.7734 30.9429 79.1519 31.3214C79.5369 31.6998 80.0328 31.8891 80.6462 31.8891L80.6397 31.876Z"
          fill="url(#paint4_linear_954_13480)"/>
    <path d="M93.3641 32.1958C92.4375 32.1958 91.661 31.9739 91.0215 31.5237C90.382 31.0734 89.8992 30.4078 89.5729 29.5204C89.2466 28.633 89.0835 27.5432 89.0835 26.2447C89.0835 24.9462 89.2401 23.8434 89.5598 22.969C89.8796 22.0946 90.3559 21.4356 90.9889 20.9984C91.6218 20.5612 92.3983 20.3393 93.3249 20.3393C94.2515 20.3393 95.0476 20.6003 95.5957 21.1158C96.1439 21.6378 96.5093 22.4339 96.692 23.5171H96.7311C96.7181 23.0082 96.705 22.5057 96.6985 22.0163C96.692 21.5269 96.6854 21.0767 96.6854 20.6721V17.6574C96.6854 17.2594 96.6267 16.9396 96.5158 16.6982C96.3983 16.4568 96.2156 16.2806 95.9611 16.1631C95.7067 16.0522 95.3673 15.9935 94.9367 15.9935H94.8714V15.7781H98.6887V30.1272C98.6887 30.5122 98.7474 30.8254 98.8584 31.0669C98.9693 31.3083 99.1585 31.4845 99.4261 31.602C99.6871 31.7129 100.026 31.7716 100.437 31.7716H100.607V31.9869H96.705V28.9788H96.6659C96.4832 30.075 96.1178 30.8842 95.5696 31.4062C95.0215 31.9347 94.2841 32.1958 93.3641 32.1958ZM93.7295 31.876C94.7409 31.876 95.4848 31.4127 95.9677 30.4927C96.4505 29.5726 96.692 28.1566 96.692 26.2512C96.692 25.0179 96.5876 23.9869 96.3853 23.1582C96.1765 22.336 95.8633 21.7096 95.4391 21.292C95.015 20.8744 94.4538 20.6656 93.7556 20.6656C93.1292 20.6656 92.6267 20.8483 92.2417 21.2202C91.8567 21.5922 91.5827 22.186 91.413 23.0016C91.2434 23.8173 91.1585 24.894 91.1585 26.2316C91.1585 27.5693 91.2434 28.6721 91.413 29.5073C91.5827 30.336 91.8633 30.9429 92.2417 31.3214C92.6267 31.6998 93.1226 31.8891 93.736 31.8891L93.7295 31.876Z"
          fill="url(#paint5_linear_954_13480)"/>
    <path d="M101.383 31.9804V31.7651H101.553C101.99 31.7651 102.343 31.7063 102.597 31.5824C102.852 31.4649 103.034 31.2626 103.139 30.9755C103.243 30.6949 103.302 30.3034 103.302 29.801V17.9054C103.302 17.4225 103.25 17.044 103.139 16.7634C103.034 16.4829 102.858 16.2871 102.617 16.1631C102.375 16.0391 102.036 15.9804 101.592 15.9804H101.488V15.7651H105.305V21.7161C105.305 21.9837 105.299 22.2643 105.286 22.5448H105.331C105.527 21.8793 105.808 21.3833 106.16 21.0767C106.512 20.7634 106.904 20.5612 107.321 20.4698C107.739 20.3785 108.131 20.3328 108.483 20.3328C109.749 20.3328 110.689 20.6656 111.308 21.3246C111.928 21.9837 112.235 23.0473 112.235 24.509V29.7944C112.235 30.2904 112.287 30.6819 112.385 30.969C112.483 31.2561 112.653 31.4584 112.888 31.5758C113.122 31.6998 113.436 31.7585 113.834 31.7585H113.938V31.9739H110.225V23.7847C110.225 22.8581 110.056 22.1077 109.716 21.5269C109.377 20.9462 108.783 20.6525 107.948 20.6525C107.282 20.6525 106.754 20.8287 106.369 21.1876C105.984 21.54 105.71 22.0032 105.547 22.5644C105.383 23.1256 105.299 23.7129 105.299 24.3262V29.8075C105.299 30.3034 105.351 30.6949 105.462 30.982C105.566 31.2692 105.749 31.4714 105.997 31.5889C106.245 31.7129 106.584 31.7716 107.008 31.7716H107.113V31.9869H101.377L101.383 31.9804Z"
          fill="url(#paint6_linear_954_13480)"/>
    <path d="M119.119 32.1958C118.036 32.1958 117.181 31.9152 116.548 31.354C115.915 30.7929 115.602 30.0229 115.602 29.0441C115.602 27.9478 116.007 27.1322 116.809 26.5906C117.612 26.049 118.832 25.7488 120.463 25.6966L122.232 25.6314V24.0327C122.232 23.2366 122.193 22.5841 122.101 22.0686C122.016 21.5596 121.834 21.1746 121.547 20.9266C121.259 20.6787 120.829 20.5547 120.248 20.5547C119.426 20.5547 118.891 20.8092 118.662 21.3247C118.428 21.8336 118.31 22.6428 118.31 23.7325C117.71 23.7325 117.259 23.6346 116.959 23.4323C116.653 23.2366 116.503 22.9038 116.503 22.4535C116.503 21.9446 116.679 21.5335 117.025 21.2268C117.37 20.9201 117.84 20.6982 118.421 20.5547C119.002 20.4111 119.641 20.3394 120.339 20.3394C121.644 20.3394 122.623 20.6134 123.269 21.1681C123.915 21.7227 124.242 22.6754 124.242 24.0261V30.4013C124.242 30.7407 124.287 31.0147 124.372 31.2105C124.457 31.4128 124.6 31.5498 124.796 31.6346C124.992 31.7195 125.253 31.7651 125.566 31.7651H125.631V31.9805H122.414V29.7423H122.375C122.232 30.31 122.003 30.7798 121.69 31.1387C121.377 31.5041 121.005 31.7651 120.568 31.9413C120.137 32.111 119.654 32.1958 119.126 32.1958H119.119ZM119.55 31.8956C120.078 31.8956 120.542 31.7586 120.946 31.4911C121.351 31.2235 121.671 30.8581 121.892 30.4013C122.121 29.9446 122.232 29.4552 122.232 28.9332V25.8597L120.868 25.925C119.661 25.9837 118.826 26.2578 118.362 26.7537C117.899 27.2496 117.671 28.0914 117.671 29.2725C117.671 29.8402 117.736 30.323 117.873 30.7146C118.01 31.1061 118.219 31.3997 118.499 31.602C118.78 31.8043 119.132 31.9022 119.543 31.9022L119.55 31.8956Z"
          fill="url(#paint7_linear_954_13480)"/>
    <path d="M128.646 17.1289C128.555 16.8222 128.444 16.5873 128.313 16.4111C128.183 16.235 128.02 16.111 127.811 16.0327C127.602 15.9544 127.341 15.9152 127.021 15.9152H126.728V15.6868H132.999V15.9152H132.477C132.007 15.9152 131.661 15.987 131.439 16.1175C131.217 16.2545 131.106 16.4894 131.106 16.8222C131.106 16.9136 131.113 17.0115 131.132 17.1159C131.145 17.2203 131.172 17.3377 131.204 17.4617C131.237 17.5857 131.263 17.7097 131.295 17.8467L133.736 25.8793C133.873 26.3361 134.003 26.7929 134.121 27.2627C134.245 27.726 134.356 28.1958 134.46 28.6787C134.565 29.155 134.663 29.6509 134.754 30.1534C134.845 29.7097 134.969 29.1746 135.132 28.5482C135.295 27.9217 135.465 27.2366 135.648 26.5058L138.362 15.85H139.322L142.649 25.7292C142.865 26.3557 143.054 26.956 143.23 27.5433C143.406 28.1305 143.563 28.6721 143.7 29.1615C143.837 29.6575 143.941 30.0751 144.02 30.4274C144.111 30.0751 144.183 29.801 144.235 29.5922C144.287 29.3899 144.346 29.155 144.418 28.894C144.483 28.633 144.581 28.2676 144.705 27.7978L147.237 18.2186C147.315 17.9576 147.367 17.7292 147.393 17.5335C147.426 17.3377 147.439 17.1615 147.439 17.0115C147.439 16.6004 147.315 16.3133 147.061 16.1566C146.813 16 146.415 15.9152 145.886 15.9152H145.364V15.6868H149.788V15.9152H149.357C149.038 15.9152 148.77 15.9674 148.561 16.0718C148.346 16.1762 148.17 16.3589 148.026 16.6199C147.883 16.881 147.746 17.2333 147.628 17.6901L143.844 31.9739H142.473L137.958 18.3557L134.578 31.9739H133.162L128.646 17.1224V17.1289Z"
          fill="url(#paint8_linear_954_13480)"/>
    <path d="M155.367 32.1957C153.834 32.1957 152.627 31.7063 151.746 30.7276C150.865 29.7488 150.421 28.2545 150.421 26.2512C150.421 24.2479 150.845 22.7798 151.687 21.8075C152.535 20.8352 153.782 20.3458 155.426 20.3458C156.959 20.3458 158.167 20.8352 159.048 21.8075C159.928 22.7798 160.372 24.261 160.372 26.2512C160.372 28.2414 159.948 29.7488 159.106 30.7276C158.265 31.7063 157.012 32.1957 155.367 32.1957ZM155.413 31.9804C156.111 31.9804 156.672 31.7912 157.097 31.4062C157.521 31.0212 157.834 30.4143 158.023 29.5726C158.212 28.7308 158.31 27.628 158.31 26.2447C158.31 24.8613 158.212 23.7781 158.023 22.9429C157.834 22.1077 157.521 21.4943 157.097 21.1223C156.672 20.7439 156.105 20.5546 155.393 20.5546C154.682 20.5546 154.134 20.7439 153.71 21.1223C153.286 21.5008 152.973 22.1077 152.783 22.9429C152.594 23.7847 152.496 24.8809 152.496 26.2447C152.496 27.6085 152.594 28.7308 152.783 29.5726C152.973 30.4143 153.286 31.0212 153.723 31.4062C154.154 31.7912 154.721 31.9804 155.42 31.9804H155.413Z"
          fill="url(#paint9_linear_954_13480)"/>
    <path d="M162.043 31.9804V31.7651H162.317C162.741 31.7651 163.087 31.7063 163.341 31.5954C163.596 31.4845 163.778 31.3018 163.896 31.0603C164.013 30.8189 164.065 30.5057 164.065 30.1207V22.4209C164.065 22.0228 164.007 21.7031 163.896 21.4616C163.785 21.2202 163.596 21.044 163.341 20.9266C163.087 20.8156 162.747 20.7569 162.317 20.7569H162.251V20.5416H166.049V22.6753H166.095C166.193 22.3034 166.343 21.9445 166.545 21.5856C166.741 21.2333 167.048 20.9331 167.452 20.6917C167.857 20.4502 168.398 20.3328 169.083 20.3328C169.769 20.3328 170.336 20.4698 170.715 20.7504C171.093 21.0244 171.282 21.416 171.282 21.9119C171.282 22.336 171.132 22.6949 170.826 22.9755C170.519 23.2626 170.01 23.3996 169.299 23.3996C169.299 22.5187 169.149 21.9119 168.849 21.5791C168.548 21.2463 168.216 21.0766 167.844 21.0766C167.433 21.0766 167.106 21.2202 166.865 21.5138C166.623 21.8075 166.447 22.1794 166.33 22.6427C166.212 23.106 166.147 23.5824 166.114 24.0718C166.088 24.5611 166.069 25.0114 166.069 25.4225V30.0032C166.069 30.4274 166.127 30.7732 166.238 31.0277C166.349 31.2822 166.539 31.4714 166.806 31.5824C167.067 31.6933 167.406 31.752 167.818 31.752H168.092V31.9673H162.036L162.043 31.9804Z"
          fill="url(#paint10_linear_954_13480)"/>
    <path d="M171.87 31.9804V31.7651H172.15C172.574 31.7651 172.92 31.7064 173.175 31.5954C173.429 31.4845 173.618 31.3018 173.729 31.0603C173.84 30.8189 173.899 30.5057 173.899 30.1207V17.6509C173.899 17.2528 173.84 16.9331 173.729 16.6917C173.618 16.4502 173.429 16.2741 173.175 16.1566C172.92 16.0457 172.581 15.9869 172.15 15.9869H171.87V15.7716H175.902V30.0163C175.902 30.4404 175.961 30.7863 176.072 31.0408C176.183 31.2953 176.372 31.4845 176.627 31.5954C176.881 31.7064 177.22 31.7651 177.651 31.7651H177.932V31.9804H171.876H171.87Z"
          fill="url(#paint11_linear_954_13480)"/>
    <path d="M183.661 32.1958C182.734 32.1958 181.958 31.9739 181.318 31.5237C180.679 31.0734 180.196 30.4078 179.87 29.5204C179.544 28.633 179.38 27.5432 179.38 26.2447C179.38 24.9462 179.537 23.8434 179.857 22.969C180.176 22.0946 180.653 21.4356 181.286 20.9984C181.919 20.5612 182.695 20.3393 183.622 20.3393C184.548 20.3393 185.344 20.6003 185.893 21.1158C186.441 21.6378 186.806 22.4339 186.989 23.5171H187.028C187.015 23.0082 187.002 22.5057 186.995 22.0163C186.989 21.5269 186.982 21.0767 186.982 20.6721V17.6574C186.982 17.2594 186.924 16.9396 186.813 16.6982C186.695 16.4568 186.513 16.2806 186.258 16.1631C186.004 16.0522 185.664 15.9935 185.234 15.9935H185.168V15.7781H188.986V30.1272C188.986 30.5122 189.044 30.8254 189.155 31.0669C189.266 31.3083 189.455 31.4845 189.723 31.602C189.984 31.7129 190.323 31.7716 190.734 31.7716H190.904V31.9869H187.002V28.9788H186.963C186.78 30.075 186.415 30.8842 185.867 31.4062C185.318 31.9347 184.581 32.1958 183.661 32.1958ZM184.02 31.876C185.031 31.876 185.775 31.4127 186.258 30.4927C186.741 29.5726 186.982 28.1566 186.982 26.2512C186.982 25.0179 186.878 23.9869 186.676 23.1582C186.467 22.336 186.154 21.7096 185.729 21.292C185.305 20.8744 184.744 20.6656 184.046 20.6656C183.42 20.6656 182.917 20.8483 182.532 21.2202C182.147 21.5922 181.873 22.186 181.703 23.0016C181.534 23.8173 181.449 24.894 181.449 26.2316C181.449 27.5693 181.534 28.6721 181.703 29.5073C181.873 30.336 182.154 30.9429 182.532 31.3214C182.917 31.6998 183.413 31.8891 184.026 31.8891L184.02 31.876Z"
          fill="url(#paint12_linear_954_13480)"/>
    <path d="M195.857 32.1958C195.145 32.1958 194.519 32.111 193.977 31.9413C193.436 31.7717 193.012 31.5172 192.711 31.1844C192.405 30.8516 192.255 30.434 192.255 29.9381C192.255 29.5531 192.333 29.2529 192.49 29.0441C192.646 28.8288 192.829 28.6787 193.031 28.5939C193.24 28.509 193.423 28.4634 193.599 28.4634C193.599 29.2333 193.671 29.8728 193.814 30.3948C193.958 30.9169 194.199 31.3084 194.538 31.5759C194.878 31.8435 195.335 31.9805 195.902 31.9805C196.653 31.9805 197.253 31.7847 197.69 31.3932C198.134 31.0017 198.349 30.4209 198.349 29.6575C198.349 29.1616 198.264 28.7635 198.095 28.4764C197.925 28.1893 197.645 27.9283 197.253 27.6999C196.861 27.4715 196.32 27.2105 195.622 26.9103C194.813 26.558 194.173 26.2121 193.703 25.8793C193.233 25.5466 192.901 25.1811 192.698 24.7831C192.496 24.3851 192.398 23.9152 192.398 23.3736C192.398 22.4079 192.738 21.664 193.423 21.1485C194.108 20.633 195.047 20.372 196.261 20.372C196.946 20.372 197.527 20.4634 198.023 20.6395C198.512 20.8157 198.884 21.0572 199.139 21.3508C199.393 21.651 199.524 21.9772 199.524 22.3296C199.524 22.7146 199.393 23.0213 199.132 23.2562C198.871 23.4911 198.486 23.6085 197.99 23.6085C197.99 22.5123 197.84 21.7358 197.54 21.2725C197.24 20.8092 196.777 20.5808 196.157 20.5808C195.674 20.5808 195.269 20.6591 194.95 20.8157C194.63 20.9723 194.388 21.2007 194.225 21.5009C194.062 21.801 193.977 22.173 193.977 22.6298C193.977 23.1257 194.075 23.5237 194.277 23.8239C194.473 24.124 194.786 24.3785 195.204 24.5939C195.622 24.8092 196.144 25.0506 196.77 25.3182C197.579 25.6444 198.219 25.9772 198.689 26.31C199.158 26.6428 199.491 27.0147 199.68 27.4193C199.87 27.8239 199.968 28.3068 199.968 28.8614C199.968 29.9707 199.596 30.8059 198.858 31.3671C198.121 31.9283 197.116 32.2089 195.85 32.2089L195.857 32.1958Z"
          fill="url(#paint13_linear_954_13480)"/>
    <path d="M183.7 42.6427C183.563 42.6427 183.459 42.597 183.387 42.5122C183.315 42.4273 183.282 42.2968 183.282 42.1207C183.282 41.9445 183.315 41.814 183.387 41.7291C183.459 41.6443 183.563 41.5986 183.7 41.5986C183.837 41.5986 183.942 41.6443 184.013 41.7291C184.085 41.814 184.118 41.9445 184.118 42.1207C184.118 42.2968 184.085 42.4273 184.013 42.5122C183.942 42.597 183.837 42.6427 183.7 42.6427Z"
          fill="#C88346"/>
    <path d="M186.852 42.6688C186.506 42.6688 186.193 42.5971 185.932 42.46C185.664 42.3165 185.456 42.0881 185.312 41.7749C185.162 41.4551 185.09 41.0375 185.09 40.522C185.09 40.0065 185.168 39.5759 185.318 39.2626C185.469 38.9494 185.671 38.7341 185.932 38.5971C186.186 38.4666 186.48 38.3948 186.8 38.3948C187.015 38.3948 187.224 38.4209 187.433 38.4796C187.641 38.5383 187.811 38.6232 187.942 38.7341C188.072 38.8515 188.144 39.0016 188.144 39.1909C188.144 39.3018 188.118 39.3931 188.066 39.4649C188.013 39.5367 187.935 39.5824 187.837 39.615C187.739 39.6476 187.615 39.6607 187.465 39.6607C187.465 39.3866 187.446 39.1648 187.407 38.9886C187.367 38.8124 187.302 38.6819 187.204 38.5971C187.106 38.5122 186.969 38.4731 186.787 38.4731C186.604 38.4731 186.441 38.5318 186.297 38.6493C186.154 38.7667 186.043 38.969 185.964 39.2626C185.886 39.5563 185.847 39.9804 185.847 40.5285C185.847 41.031 185.886 41.4356 185.964 41.7422C186.043 42.0489 186.167 42.2643 186.336 42.4013C186.506 42.5318 186.721 42.6036 186.989 42.6036C187.159 42.6036 187.309 42.5775 187.446 42.5188C187.583 42.46 187.7 42.3622 187.798 42.2251C187.896 42.0816 187.974 41.8923 188.033 41.6444C188.085 41.6574 188.124 41.677 188.15 41.7227C188.177 41.7618 188.19 41.8206 188.19 41.8923C188.19 42.0163 188.137 42.1403 188.046 42.2577C187.948 42.3752 187.805 42.4796 187.609 42.5644C187.413 42.6493 187.165 42.6884 186.871 42.6884L186.852 42.6688Z"
          fill="#C88346"/>
    <path d="M190.65 42.6688C190.095 42.6688 189.658 42.4927 189.345 42.1403C189.031 41.7879 188.868 41.2463 188.868 40.5285C188.868 39.8108 189.018 39.2757 189.325 38.9233C189.632 38.571 190.082 38.3948 190.676 38.3948C191.23 38.3948 191.668 38.571 191.981 38.9233C192.3 39.2757 192.457 39.8108 192.457 40.5285C192.457 41.2463 192.307 41.7879 192 42.1403C191.694 42.4927 191.243 42.6688 190.65 42.6688ZM190.669 42.5905C190.917 42.5905 191.126 42.5188 191.276 42.3817C191.426 42.2447 191.544 42.0228 191.609 41.7227C191.681 41.4225 191.713 41.0179 191.713 40.522C191.713 40.0261 191.681 39.6346 191.609 39.3279C191.537 39.0277 191.426 38.8059 191.276 38.6688C191.119 38.5318 190.917 38.4666 190.663 38.4666C190.408 38.4666 190.206 38.5318 190.056 38.6688C189.899 38.8059 189.788 39.0212 189.723 39.3279C189.651 39.6281 189.619 40.0261 189.619 40.522C189.619 41.0179 189.651 41.416 189.723 41.7227C189.795 42.0228 189.906 42.2447 190.062 42.3817C190.219 42.5188 190.421 42.5905 190.676 42.5905H190.669Z"
          fill="#C88346"/>
    <path d="M193.096 42.5905V42.5122H193.155C193.312 42.5122 193.429 42.4926 193.527 42.4535C193.625 42.4143 193.684 42.349 193.729 42.2642C193.769 42.1794 193.788 42.0619 193.788 41.9249V39.1517C193.788 39.0081 193.769 38.8906 193.729 38.8058C193.69 38.721 193.625 38.6557 193.527 38.6166C193.436 38.5774 193.312 38.5579 193.155 38.5579H193.129V38.4796H194.499V39.2104H194.512C194.584 38.982 194.682 38.8123 194.8 38.7014C194.917 38.584 195.054 38.5057 195.204 38.4665C195.354 38.4274 195.504 38.4078 195.661 38.4078C195.935 38.4078 196.176 38.473 196.398 38.6035C196.614 38.734 196.777 38.982 196.881 39.3474H196.894C196.959 39.0734 197.057 38.8645 197.175 38.734C197.292 38.6035 197.429 38.5122 197.579 38.473C197.729 38.4339 197.873 38.4143 198.016 38.4143C198.46 38.4143 198.786 38.5383 198.995 38.7928C199.211 39.0473 199.315 39.4322 199.315 39.9412V41.8988C199.315 42.0554 199.335 42.1729 199.374 42.2707C199.413 42.3621 199.485 42.4274 199.576 42.473C199.667 42.5187 199.791 42.5318 199.941 42.5318H199.968V42.6101H198.591V39.7911C198.591 39.367 198.532 39.0538 198.415 38.858C198.297 38.6623 198.108 38.5644 197.847 38.5644C197.651 38.5644 197.488 38.6166 197.344 38.7145C197.207 38.8123 197.103 38.9624 197.031 39.1517C196.959 39.3409 196.927 39.5693 196.927 39.8433V41.9053C196.927 42.0619 196.946 42.1794 196.985 42.2773C197.025 42.3686 197.096 42.4339 197.188 42.4796C197.279 42.5252 197.403 42.5383 197.553 42.5383H197.573V42.6166H196.196V39.7977C196.196 39.3735 196.137 39.0603 196.013 38.8645C195.896 38.6688 195.693 38.5709 195.426 38.5709C195.224 38.5709 195.047 38.6231 194.91 38.7275C194.773 38.8319 194.669 38.982 194.597 39.1908C194.525 39.3931 194.493 39.6541 194.493 39.9608V41.9119C194.493 42.0685 194.512 42.1859 194.552 42.2838C194.591 42.3751 194.662 42.4404 194.754 42.4861C194.845 42.5318 194.969 42.5448 195.119 42.5448H195.139V42.6231H193.07L193.096 42.5905Z"
          fill="#C88346"/>
    <defs>
        <linearGradient id="paint0_linear_954_13480" x1="19.9739" y1="4.18271" x2="19.9739" y2="42.9821"
                        gradientUnits="userSpaceOnUse">
            <stop stop-color="#EFE7B6"/>
            <stop offset="0.7" stop-color="#F6D796"/>
            <stop offset="1" stop-color="#C88347"/>
        </linearGradient>
        <linearGradient id="paint1_linear_954_13480" x1="19.9741" y1="-0.835231" x2="19.9741" y2="42.8515"
                        gradientUnits="userSpaceOnUse">
            <stop stop-color="#EFE7B6"/>
            <stop offset="0.7" stop-color="#F6D796"/>
            <stop offset="1" stop-color="#C88347"/>
        </linearGradient>
        <linearGradient id="paint2_linear_954_13480" x1="53.6641" y1="15.7977" x2="53.6641" y2="31.726"
                        gradientUnits="userSpaceOnUse">
            <stop stop-color="#EFE7B6"/>
            <stop offset="0.7" stop-color="#F6D796"/>
            <stop offset="1" stop-color="#C88347"/>
        </linearGradient>
        <linearGradient id="paint3_linear_954_13480" x1="68.0459" y1="15.7976" x2="68.0459" y2="31.7259"
                        gradientUnits="userSpaceOnUse">
            <stop stop-color="#EFE7B6"/>
            <stop offset="0.7" stop-color="#F6D796"/>
            <stop offset="1" stop-color="#C88347"/>
        </linearGradient>
        <linearGradient id="paint4_linear_954_13480" x1="81.7555" y1="15.7977" x2="81.7555" y2="31.7259"
                        gradientUnits="userSpaceOnUse">
            <stop stop-color="#EFE7B6"/>
            <stop offset="0.7" stop-color="#F6D796"/>
            <stop offset="1" stop-color="#C88347"/>
        </linearGradient>
        <linearGradient id="paint5_linear_954_13480" x1="94.8453" y1="15.7977" x2="94.8453" y2="31.7259"
                        gradientUnits="userSpaceOnUse">
            <stop stop-color="#EFE7B6"/>
            <stop offset="0.7" stop-color="#F6D796"/>
            <stop offset="1" stop-color="#C88347"/>
        </linearGradient>
        <linearGradient id="paint6_linear_954_13480" x1="107.661" y1="15.7977" x2="107.661" y2="31.7259"
                        gradientUnits="userSpaceOnUse">
            <stop stop-color="#EFE7B6"/>
            <stop offset="0.7" stop-color="#F6D796"/>
            <stop offset="1" stop-color="#C88347"/>
        </linearGradient>
        <linearGradient id="paint7_linear_954_13480" x1="120.613" y1="15.7978" x2="120.613" y2="31.726"
                        gradientUnits="userSpaceOnUse">
            <stop stop-color="#EFE7B6"/>
            <stop offset="0.7" stop-color="#F6D796"/>
            <stop offset="1" stop-color="#C88347"/>
        </linearGradient>
        <linearGradient id="paint8_linear_954_13480" x1="138.264" y1="15.7978" x2="138.264" y2="31.726"
                        gradientUnits="userSpaceOnUse">
            <stop stop-color="#EFE7B6"/>
            <stop offset="0.7" stop-color="#F6D796"/>
            <stop offset="1" stop-color="#C88347"/>
        </linearGradient>
        <linearGradient id="paint9_linear_954_13480" x1="155.4" y1="15.7977" x2="155.4" y2="31.7259"
                        gradientUnits="userSpaceOnUse">
            <stop stop-color="#EFE7B6"/>
            <stop offset="0.7" stop-color="#F6D796"/>
            <stop offset="1" stop-color="#C88347"/>
        </linearGradient>
        <linearGradient id="paint10_linear_954_13480" x1="166.656" y1="15.7977" x2="166.656" y2="31.7259"
                        gradientUnits="userSpaceOnUse">
            <stop stop-color="#EFE7B6"/>
            <stop offset="0.7" stop-color="#F6D796"/>
            <stop offset="1" stop-color="#C88347"/>
        </linearGradient>
        <linearGradient id="paint11_linear_954_13480" x1="174.897" y1="15.7977" x2="174.897" y2="31.7259"
                        gradientUnits="userSpaceOnUse">
            <stop stop-color="#EFE7B6"/>
            <stop offset="0.7" stop-color="#F6D796"/>
            <stop offset="1" stop-color="#C88347"/>
        </linearGradient>
        <linearGradient id="paint12_linear_954_13480" x1="185.142" y1="15.7977" x2="185.142" y2="31.7259"
                        gradientUnits="userSpaceOnUse">
            <stop stop-color="#EFE7B6"/>
            <stop offset="0.7" stop-color="#F6D796"/>
            <stop offset="1" stop-color="#C88347"/>
        </linearGradient>
        <linearGradient id="paint13_linear_954_13480" x1="196.111" y1="15.7978" x2="196.111" y2="31.726"
                        gradientUnits="userSpaceOnUse">
            <stop stop-color="#EFE7B6"/>
            <stop offset="0.7" stop-color="#F6D796"/>
            <stop offset="1" stop-color="#C88347"/>
        </linearGradient>
    </defs>
</svg>
