<svg width="31" height="30" viewBox="0 0 31 30" fill="none" xmlns="http://www.w3.org/2000/svg">
    <path d="M30.014 14.9793C30.014 23.1885 23.4003 29.8539 15.2015 29.9587C22.7113 29.8539 28.7676 23.745 28.7676 16.2236C28.7676 8.70216 22.6063 2.48844 15.0063 2.48844C7.40629 2.48844 1.24646 8.63869 1.24646 16.225C1.24646 23.8114 7.30279 29.8554 14.8126 29.9601C6.61377 29.8554 0 23.1885 0 14.9793C0 6.77015 6.71875 0 15.0063 0C23.2938 0 30.0126 6.70668 30.0126 14.9793H30.014Z"
          fill="url(#paint0_linear_1662_2569)"/>
    <path d="M16.8539 25.1427C16.8169 25.1117 16.78 25.0807 16.7415 25.0512C15.9549 24.4446 15.3753 23.6033 15.1816 22.6292C15.0707 22.0654 15.0086 21.5207 15.0086 21.1827L15.0057 21.4469L15.0027 21.1827C15.0027 21.5207 14.9421 22.0668 14.8297 22.6292C14.6375 23.6033 14.0579 24.4431 13.2698 25.0512C13.2313 25.0807 13.1944 25.1117 13.1574 25.1427C12.5674 25.6504 12.1934 26.4002 12.1934 27.2385C12.1934 28.7794 13.4561 30.0236 15.0057 30C16.5537 30.0236 17.8179 28.7794 17.8179 27.2385C17.8179 26.4002 17.4439 25.6504 16.8539 25.1427Z"
          fill="url(#paint1_linear_1662_2569)"/>
    <defs>
        <linearGradient id="paint0_linear_1662_2569" x1="15.0063" y1="0.137263" x2="15.0063" y2="29.234"
                        gradientUnits="userSpaceOnUse">
            <stop stop-color="#EFE7B6"/>
            <stop offset="0.7" stop-color="#F6D796"/>
            <stop offset="1" stop-color="#C88347"/>
        </linearGradient>
        <linearGradient id="paint1_linear_1662_2569" x1="15.0057" y1="0.137283" x2="15.0057" y2="29.234"
                        gradientUnits="userSpaceOnUse">
            <stop stop-color="#EFE7B6"/>
            <stop offset="0.7" stop-color="#F6D796"/>
            <stop offset="1" stop-color="#C88347"/>
        </linearGradient>
    </defs>
</svg>
