<svg width="156" height="65" viewBox="0 0 156 65" fill="none" xmlns="http://www.w3.org/2000/svg">
    <g clip-path="url(#clip0_1711_2121)">
        <g clip-path="url(#clip1_1711_2121)">
            <path d="M67.7342 32.1153C67.7342 49.6283 53.6474 63.8498 36.1848 64.0703C52.1784 63.8467 65.0789 50.8144 65.0789 34.7702C65.0789 18.726 51.9579 5.46701 35.7749 5.46701C19.5918 5.46701 6.46775 18.5862 6.46775 34.7702C6.46775 50.9542 19.3651 63.8498 35.3618 64.0703C17.8993 63.8467 3.8125 49.6283 3.8125 32.1153C3.8125 14.6023 18.1229 0.157227 35.7749 0.157227C53.4269 0.157227 67.7373 14.4657 67.7373 32.1153H67.7342Z"
                  fill="url(#paint0_linear_1711_2121)"/>
            <path d="M40.207 52.4914C40.12 52.4168 40.03 52.3423 39.9368 52.2709C38.0486 50.8115 36.6604 48.7931 36.1977 46.4519C35.9306 45.098 35.7847 43.7877 35.7847 42.9741L35.7754 43.6107L35.766 42.9741C35.766 43.7877 35.6201 45.098 35.353 46.4519C34.8903 48.79 33.499 50.8115 31.6139 52.2709C31.5208 52.3423 31.4307 52.4137 31.3437 52.4914C29.9276 53.7086 29.0332 55.5127 29.0332 57.5248C29.0332 61.2261 32.0642 64.2164 35.7785 64.1574C39.4927 64.2164 42.5237 61.223 42.5237 57.5248C42.5237 55.5127 41.6293 53.7086 40.2132 52.4914H40.207Z"
                  fill="url(#paint1_linear_1711_2121)"/>
            <path d="M75.7803 26.1689V25.9453H76.0691C76.4697 25.9453 76.8051 25.8863 77.0815 25.7683C77.3548 25.6503 77.5598 25.4733 77.6933 25.2342C77.8268 24.9982 77.892 24.7001 77.892 24.3462V12.0312C77.892 11.6896 77.8268 11.4102 77.6933 11.1866C77.5598 10.963 77.3548 10.7984 77.0815 10.6867C76.8082 10.5749 76.4697 10.519 76.0691 10.519H75.7803V10.2954H81.7367C83.6342 10.2954 85.0597 10.6152 86.0162 11.2518C86.9727 11.8883 87.451 12.8292 87.451 14.0744C87.451 14.8165 87.2926 15.4499 86.9727 15.9747C86.6528 16.4995 86.1808 16.9125 85.5504 17.2074C84.9199 17.5055 84.1311 17.6887 83.1839 17.7633V17.8067C84.9479 17.8813 86.2118 18.2849 86.9727 19.0177C87.7367 19.7506 88.1186 20.71 88.1186 21.8962C88.1186 23.3339 87.6466 24.4052 86.7056 25.1069C85.7646 25.8118 84.3299 26.1627 82.4044 26.1627H75.7803V26.1689ZM81.6715 17.7446C82.4852 17.7446 83.1435 17.6297 83.6404 17.4C84.1373 17.1702 84.5007 16.8007 84.7305 16.2883C84.9603 15.776 85.0752 15.1053 85.0752 14.2762C85.0752 12.913 84.8112 11.9473 84.2864 11.376C83.7616 10.8047 82.8734 10.519 81.6311 10.519H80.1405V17.7415H81.6746L81.6715 17.7446ZM82.2926 25.9484C83.538 25.9484 84.423 25.6379 84.9479 25.0138C85.4727 24.3927 85.7367 23.3556 85.7367 21.9024C85.7367 20.9553 85.6218 20.1946 85.392 19.6232C85.1622 19.0519 84.7988 18.6327 84.3019 18.3688C83.805 18.1017 83.1498 17.9682 82.333 17.9682H80.1312V25.9484H82.2864H82.2926Z"
                  fill="url(#paint2_linear_1711_2121)"/>
            <path d="M95.3022 26.377C94.0755 26.377 93.1625 26.0541 92.5569 25.4051C91.9513 24.7592 91.65 23.7159 91.65 22.2844V17.0647C91.65 16.5927 91.5972 16.2201 91.4948 15.9468C91.3892 15.6767 91.2122 15.4811 90.9637 15.3631C90.7122 15.2451 90.3706 15.1861 89.942 15.1861H89.8799V14.978H93.619V22.39C93.619 23.2812 93.6811 23.9953 93.8084 24.5294C93.9326 25.0666 94.1469 25.4579 94.445 25.7094C94.7432 25.9609 95.1438 26.0851 95.6469 26.0851C96.2742 26.0851 96.7928 25.9205 97.2028 25.5945C97.6127 25.2685 97.9233 24.7872 98.1313 24.1537C98.3394 23.5203 98.445 22.7595 98.445 21.8683V17.0647C98.445 16.5927 98.3922 16.2201 98.2897 15.9468C98.1841 15.6767 98.0071 15.4811 97.7587 15.3631C97.5071 15.2451 97.1655 15.1861 96.7369 15.1861H96.6748V14.978H100.414V24.104C100.414 24.576 100.467 24.9486 100.569 25.2219C100.672 25.4951 100.852 25.6845 101.1 25.7963C101.352 25.9081 101.69 25.964 102.125 25.964H102.187V26.172H98.5941V23.3122H98.5537C98.4419 24.0233 98.2649 24.5822 98.0226 24.9921C97.7804 25.402 97.5009 25.7063 97.1873 25.9019C96.8736 26.0975 96.5537 26.2248 96.2276 26.2869C95.9015 26.349 95.5972 26.3801 95.3208 26.3801L95.3022 26.377Z"
                  fill="url(#paint3_linear_1711_2121)"/>
            <path d="M108 26.3771C107.097 26.3771 106.33 26.1566 105.702 25.7188C105.075 25.2809 104.603 24.6258 104.283 23.7563C103.963 22.8869 103.802 21.8187 103.802 20.5518C103.802 19.2849 103.957 18.2012 104.271 17.3473C104.584 16.4903 105.05 15.8475 105.671 15.4159C106.292 14.9843 107.053 14.7701 107.957 14.7701C108.861 14.7701 109.646 15.0247 110.181 15.5339C110.718 16.0432 111.075 16.8257 111.255 17.8845H111.295C111.28 17.3846 111.271 16.894 111.264 16.4127C111.258 15.9314 111.255 15.4935 111.255 15.0961V12.14C111.255 11.7488 111.199 11.4382 111.087 11.1991C110.976 10.9632 110.795 10.7893 110.544 10.6775C110.292 10.5657 109.96 10.5098 109.541 10.5098H109.479V10.3018H113.218V24.3556C113.218 24.7313 113.274 25.0387 113.385 25.2747C113.497 25.5107 113.681 25.6846 113.938 25.7964C114.196 25.9082 114.525 25.9641 114.929 25.9641H115.097V26.1721H111.274V23.2284H111.233C111.053 24.2997 110.693 25.0946 110.159 25.6101C109.622 26.1255 108.901 26.3833 107.997 26.3833L108 26.3771ZM108.355 26.0665C109.342 26.0665 110.075 25.6132 110.547 24.7096C111.019 23.806 111.258 22.4211 111.258 20.5549C111.258 19.3439 111.156 18.3348 110.954 17.5274C110.752 16.7201 110.441 16.1115 110.025 15.7016C109.609 15.2917 109.056 15.0868 108.376 15.0868C107.764 15.0868 107.271 15.2669 106.892 15.6302C106.516 15.9935 106.246 16.5741 106.078 17.3753C105.91 18.1764 105.827 19.2321 105.827 20.5394C105.827 21.8467 105.91 22.9304 106.078 23.7439C106.246 24.5574 106.516 25.1505 106.892 25.52C107.268 25.8896 107.755 26.0728 108.355 26.0728V26.0665Z"
                  fill="url(#paint4_linear_1711_2121)"/>
            <path d="M120.824 26.3771C119.92 26.3771 119.153 26.1566 118.526 25.7188C117.898 25.2809 117.426 24.6258 117.106 23.7563C116.786 22.8869 116.625 21.8187 116.625 20.5518C116.625 19.2849 116.78 18.2012 117.094 17.3473C117.408 16.4903 117.873 15.8475 118.495 15.4159C119.116 14.9843 119.877 14.7701 120.78 14.7701C121.684 14.7701 122.47 15.0247 123.004 15.5339C123.541 16.0432 123.898 16.8257 124.078 17.8845H124.119C124.103 17.3846 124.094 16.894 124.088 16.4127C124.081 15.9314 124.078 15.4935 124.078 15.0961V12.14C124.078 11.7488 124.022 11.4382 123.911 11.1991C123.799 10.9632 123.619 10.7893 123.367 10.6775C123.116 10.5657 122.783 10.5098 122.364 10.5098H122.302V10.3018H126.041V24.3556C126.041 24.7313 126.097 25.0387 126.209 25.2747C126.321 25.5107 126.504 25.6846 126.762 25.7964C127.019 25.9082 127.348 25.9641 127.752 25.9641H127.92V26.1721H124.097V23.2284H124.057C123.876 24.2997 123.516 25.0946 122.982 25.6101C122.445 26.1255 121.724 26.3833 120.821 26.3833L120.824 26.3771ZM121.178 26.0665C122.165 26.0665 122.898 25.6132 123.37 24.7096C123.842 23.806 124.081 22.4211 124.081 20.5549C124.081 19.3439 123.979 18.3348 123.777 17.5274C123.575 16.7201 123.265 16.1115 122.849 15.7016C122.432 15.2917 121.88 15.0868 121.199 15.0868C120.588 15.0868 120.094 15.2669 119.715 15.6302C119.339 15.9935 119.069 16.5741 118.901 17.3753C118.734 18.1764 118.65 19.2321 118.65 20.5394C118.65 21.8467 118.734 22.9304 118.901 23.7439C119.069 24.5574 119.339 25.1505 119.715 25.52C120.091 25.8896 120.578 26.0728 121.178 26.0728V26.0665Z"
                  fill="url(#paint5_linear_1711_2121)"/>
            <path d="M128.677 26.1687V25.9607H128.845C129.277 25.9607 129.618 25.9017 129.867 25.7837C130.118 25.6657 130.295 25.4669 130.398 25.1875C130.503 24.908 130.553 24.5261 130.553 24.0386V12.385C130.553 11.913 130.5 11.5404 130.398 11.2671C130.292 10.997 130.124 10.8014 129.885 10.6834C129.649 10.5654 129.314 10.5064 128.882 10.5064H128.777V10.2983H132.516V16.1236C132.516 16.3875 132.51 16.6608 132.494 16.9371H132.534C132.73 16.2819 133 15.8038 133.348 15.4963C133.696 15.1889 134.075 14.9933 134.485 14.9002C134.895 14.8101 135.273 14.7635 135.624 14.7635C136.864 14.7635 137.786 15.0865 138.391 15.7354C138.997 16.3813 139.298 17.4246 139.298 18.8561V24.0355C139.298 24.523 139.348 24.9049 139.444 25.1844C139.541 25.4638 139.705 25.6626 139.935 25.7806C140.165 25.8986 140.475 25.9575 140.863 25.9575H140.969V26.1656H137.336V18.1481C137.336 17.2445 137.168 16.5055 136.836 15.9342C136.5 15.3628 135.923 15.0771 135.103 15.0771C134.447 15.0771 133.932 15.251 133.556 15.5988C133.18 15.9466 132.91 16.3968 132.752 16.9464C132.59 17.496 132.513 18.0705 132.513 18.6698V24.0355C132.513 24.523 132.565 24.9049 132.668 25.1844C132.774 25.4638 132.947 25.6626 133.19 25.7806C133.432 25.8986 133.764 25.9575 134.18 25.9575H134.286V26.1656H128.668L128.677 26.1687Z"
                  fill="url(#paint6_linear_1711_2121)"/>
            <path d="M146.052 26.3767C144.993 26.3767 144.155 26.1035 143.537 25.5507C142.916 25.0011 142.608 24.2466 142.608 23.284C142.608 22.2127 143.003 21.4116 143.789 20.8837C144.574 20.3559 145.77 20.0609 147.369 20.0081L149.102 19.946V18.381C149.102 17.6016 149.062 16.9619 148.978 16.4589C148.894 15.959 148.714 15.5864 148.434 15.3411C148.155 15.0989 147.729 14.9746 147.161 14.9746C146.354 14.9746 145.835 15.2262 145.605 15.7261C145.375 16.226 145.261 17.0147 145.261 18.086C144.677 18.086 144.233 17.9897 143.934 17.7941C143.633 17.5985 143.484 17.2787 143.484 16.8346C143.484 16.3347 143.655 15.9341 143.997 15.6329C144.338 15.3348 144.795 15.1144 145.366 14.9746C145.938 14.8349 146.562 14.7666 147.245 14.7666C148.524 14.7666 149.484 15.0367 150.118 15.5801C150.751 16.1235 151.068 17.0551 151.068 18.3779V24.6223C151.068 24.9577 151.108 25.2216 151.192 25.4172C151.276 25.6128 151.416 25.7526 151.608 25.8333C151.801 25.914 152.055 25.9575 152.36 25.9575H152.422V26.1656H149.27V23.9733H149.229C149.09 24.5292 148.866 24.9856 148.562 25.3396C148.254 25.6936 147.891 25.9544 147.465 26.1221C147.04 26.2898 146.571 26.3736 146.056 26.3736L146.052 26.3767ZM146.469 26.0848C146.984 26.0848 147.441 25.9513 147.838 25.6874C148.236 25.4234 148.543 25.0694 148.767 24.6223C148.99 24.1783 149.102 23.697 149.102 23.1815V20.1758L147.767 20.2379C146.584 20.2937 145.764 20.5639 145.313 21.0514C144.86 21.5389 144.633 22.3587 144.633 23.5169C144.633 24.0727 144.698 24.5447 144.832 24.9266C144.966 25.3085 145.17 25.5973 145.447 25.7929C145.726 25.9886 146.068 26.0848 146.472 26.0848H146.469Z"
                  fill="url(#paint7_linear_1711_2121)"/>
            <path d="M83.1312 33.5528C83.0411 33.2547 82.9324 33.0187 82.8051 32.8479C82.6778 32.6771 82.5132 32.5529 82.3113 32.4784C82.1094 32.4039 81.8517 32.3666 81.538 32.3666H81.2461V32.1431H87.4075V32.3666H86.892C86.4293 32.3666 86.0877 32.4349 85.8734 32.5685C85.656 32.702 85.5473 32.9349 85.5473 33.264C85.5473 33.3541 85.5535 33.4503 85.569 33.5559C85.5846 33.6615 85.6063 33.7733 85.6374 33.8913C85.6684 34.0124 85.6964 34.1366 85.7274 34.2732L88.1249 42.1602C88.2584 42.6074 88.3858 43.0607 88.5069 43.5172C88.6249 43.9736 88.7398 44.4363 88.8423 44.9052C88.9479 45.3772 89.0441 45.8585 89.1342 46.3491C89.2243 45.9175 89.3485 45.3896 89.5038 44.7686C89.659 44.1475 89.8298 43.4799 90.0069 42.7626L92.6745 32.3014H93.6155L96.8857 42.0019C97.0938 42.6136 97.2863 43.2098 97.4571 43.7842C97.6279 44.3587 97.7832 44.8897 97.9167 45.3741C98.0503 45.8585 98.1558 46.2745 98.2304 46.6161C98.3204 46.2714 98.3919 46.0013 98.4447 45.7995C98.4975 45.5976 98.5565 45.371 98.6248 45.1163C98.6931 44.8617 98.7863 44.5046 98.9043 44.042L101.392 34.6334C101.466 34.3788 101.519 34.1552 101.547 33.9627C101.578 33.7702 101.591 33.5963 101.591 33.4472C101.591 33.0436 101.466 32.7641 101.221 32.6057C100.976 32.4505 100.591 32.3697 100.066 32.3697H99.5502V32.1462H103.898V32.3697H103.473C103.159 32.3697 102.898 32.4225 102.687 32.525C102.479 32.6306 102.302 32.8076 102.159 33.0622C102.016 33.3168 101.886 33.6677 101.768 34.1148L98.0472 48.1407H96.7024L92.2646 34.7669L88.9479 48.1407H87.5597L83.1219 33.5559L83.1312 33.5528Z"
                  fill="url(#paint8_linear_1711_2121)"/>
            <path d="M108.73 48.3455C107.227 48.3455 106.044 47.8642 105.181 46.9047C104.317 45.9452 103.886 44.4827 103.886 42.5202C103.886 40.5578 104.299 39.1201 105.128 38.1668C105.957 37.2135 107.178 36.7354 108.793 36.7354C110.296 36.7354 111.479 37.2135 112.342 38.1668C113.206 39.1201 113.637 40.5733 113.637 42.5202C113.637 44.4671 113.224 45.9452 112.395 46.9047C111.566 47.8642 110.345 48.3455 108.73 48.3455ZM108.774 48.1374C109.457 48.1374 110.007 47.948 110.423 47.5723C110.842 47.1966 111.143 46.5973 111.333 45.7775C111.522 44.9546 111.615 43.871 111.615 42.5202C111.615 41.1695 111.522 40.1044 111.333 39.2847C111.143 38.4618 110.842 37.8687 110.423 37.4992C110.007 37.1297 109.448 36.9465 108.752 36.9465C108.057 36.9465 107.519 37.1297 107.103 37.4992C106.687 37.8687 106.383 38.4618 106.196 39.2847C106.007 40.1075 105.914 41.185 105.914 42.5202C105.914 43.8554 106.007 44.9578 106.196 45.7775C106.383 46.6004 106.69 47.1966 107.116 47.5723C107.541 47.948 108.094 48.1374 108.777 48.1374H108.774Z"
                  fill="url(#paint9_linear_1711_2121)"/>
            <path d="M115.268 48.1374V47.9294H115.538C115.957 47.9294 116.289 47.8735 116.541 47.7617C116.793 47.6499 116.973 47.476 117.084 47.24C117.196 47.004 117.252 46.6966 117.252 46.3209V38.7816C117.252 38.3935 117.196 38.0799 117.084 37.8408C116.973 37.6048 116.793 37.4309 116.541 37.3191C116.289 37.2073 115.957 37.1514 115.538 37.1514H115.476V36.9434H119.193V39.03H119.234C119.33 38.6667 119.476 38.3128 119.671 37.965C119.867 37.6172 120.162 37.3253 120.56 37.0893C120.957 36.8533 121.488 36.7354 122.156 36.7354C122.824 36.7354 123.386 36.872 123.755 37.1421C124.125 37.4123 124.308 37.7942 124.308 38.2817C124.308 38.6978 124.159 39.0487 123.858 39.325C123.56 39.6045 123.06 39.7442 122.364 39.7442C122.364 38.881 122.218 38.2848 121.926 37.9588C121.634 37.6327 121.305 37.4682 120.945 37.4682C120.541 37.4682 120.221 37.611 119.985 37.8967C119.749 38.1823 119.575 38.5519 119.463 39.0021C119.352 39.4555 119.283 39.9212 119.255 40.4025C119.227 40.8838 119.215 41.3247 119.215 41.7284V46.2184C119.215 46.6376 119.271 46.9699 119.383 47.2214C119.494 47.4729 119.678 47.653 119.935 47.7648C120.193 47.8766 120.522 47.9325 120.926 47.9325H121.196V48.1405H115.265L115.268 48.1374Z"
                  fill="url(#paint10_linear_1711_2121)"/>
            <path d="M124.895 48.1375V47.9294H125.168C125.584 47.9294 125.919 47.8735 126.171 47.7617C126.422 47.6499 126.603 47.4761 126.714 47.2401C126.826 47.0041 126.882 46.6967 126.882 46.3209V34.1053C126.882 33.7141 126.826 33.4036 126.714 33.1645C126.603 32.9285 126.422 32.7546 126.171 32.6428C125.919 32.531 125.587 32.4751 125.168 32.4751H124.895V32.2671H128.842V46.2154C128.842 46.6346 128.898 46.9668 129.009 47.2183C129.121 47.4698 129.301 47.6499 129.553 47.7617C129.804 47.8735 130.137 47.9294 130.556 47.9294H130.829V48.1375H124.898H124.895Z"
                  fill="url(#paint11_linear_1711_2121)"/>
            <path d="M136.444 48.3458C135.54 48.3458 134.773 48.1253 134.146 47.6875C133.518 47.2497 133.046 46.5945 132.726 45.7251C132.407 44.8556 132.245 43.7875 132.245 42.5206C132.245 41.2537 132.4 40.17 132.714 39.3161C133.028 38.459 133.494 37.8163 134.115 37.3847C134.736 36.9531 135.497 36.7388 136.4 36.7388C137.304 36.7388 138.09 36.9934 138.624 37.5027C139.161 38.0119 139.518 38.7944 139.698 39.8533H139.739C139.723 39.3533 139.714 38.8627 139.708 38.3814C139.702 37.9001 139.698 37.4623 139.698 37.0648V34.1087C139.698 33.7175 139.643 33.407 139.531 33.1679C139.419 32.9319 139.239 32.758 138.987 32.6462C138.736 32.5344 138.403 32.4786 137.984 32.4786H137.922V32.2705H141.661V46.3244C141.661 46.7001 141.717 47.0075 141.829 47.2435C141.941 47.4795 142.124 47.6534 142.382 47.7651C142.639 47.8769 142.969 47.9328 143.372 47.9328H143.54V48.1409H139.717V45.1972H139.677C139.497 46.2685 139.136 47.0634 138.602 47.5788C138.065 48.0943 137.344 48.352 136.441 48.352L136.444 48.3458ZM136.798 48.0322C137.785 48.0322 138.518 47.5788 138.99 46.6752C139.462 45.7716 139.702 44.3868 139.702 42.5206C139.702 41.3096 139.599 40.3004 139.397 39.4931C139.195 38.6857 138.885 38.0771 138.469 37.6672C138.053 37.2574 137.5 37.0524 136.82 37.0524C136.208 37.0524 135.714 37.2325 135.335 37.5958C134.959 37.9591 134.689 38.5398 134.521 39.3409C134.354 40.142 134.27 41.1978 134.27 42.505C134.27 43.8123 134.354 44.896 134.521 45.7095C134.689 46.5231 134.959 47.1162 135.335 47.4857C135.711 47.8552 136.198 48.0384 136.798 48.0384V48.0322Z"
                  fill="url(#paint12_linear_1711_2121)"/>
            <path d="M148.391 48.3458C147.696 48.3458 147.081 48.262 146.553 48.0943C146.025 47.9266 145.609 47.6813 145.311 47.3522C145.013 47.0262 144.86 46.6194 144.86 46.1319C144.86 45.7562 144.938 45.4643 145.09 45.2562C145.242 45.0482 145.419 44.9022 145.621 44.8184C145.823 44.7346 146.006 44.6942 146.174 44.6942C146.174 45.4456 146.242 46.076 146.382 46.5852C146.522 47.0945 146.758 47.4795 147.093 47.7434C147.429 48.0074 147.873 48.1409 148.429 48.1409C149.168 48.1409 149.752 47.9484 150.183 47.5664C150.615 47.1845 150.829 46.6163 150.829 45.8648C150.829 45.3773 150.745 44.9923 150.578 44.7066C150.41 44.4209 150.137 44.1663 149.752 43.9459C149.37 43.7223 148.835 43.4646 148.152 43.1727C147.357 42.8249 146.733 42.4864 146.273 42.1604C145.814 41.8344 145.488 41.4742 145.292 41.086C145.096 40.6979 145 40.2383 145 39.7073C145 38.7603 145.335 38.0337 146.003 37.5244C146.671 37.0152 147.596 36.7637 148.78 36.7637C149.447 36.7637 150.022 36.8506 150.503 37.0245C150.985 37.1984 151.348 37.4313 151.599 37.7232C151.851 38.015 151.975 38.3349 151.975 38.6826C151.975 39.0584 151.845 39.3627 151.59 39.5925C151.332 39.8222 150.96 39.9371 150.472 39.9371C150.472 38.8659 150.326 38.102 150.034 37.6517C149.742 37.1984 149.289 36.9717 148.677 36.9717C148.205 36.9717 147.811 37.0493 147.497 37.2015C147.183 37.3536 146.947 37.5772 146.786 37.8691C146.624 38.161 146.547 38.5305 146.547 38.9745C146.547 39.462 146.643 39.8502 146.839 40.1452C147.034 40.437 147.335 40.6886 147.745 40.8966C148.155 41.1047 148.668 41.3438 149.28 41.6077C150.075 41.9275 150.699 42.2504 151.158 42.5796C151.618 42.9056 151.941 43.2689 152.13 43.6664C152.317 44.0638 152.413 44.5327 152.413 45.0761C152.413 46.1629 152.05 46.9796 151.326 47.5292C150.603 48.0788 149.621 48.3552 148.382 48.3552L148.391 48.3458Z"
                  fill="url(#paint13_linear_1711_2121)"/>
            <path d="M135.963 58.1767C135.823 58.1767 135.718 58.1332 135.65 58.0432C135.581 57.9531 135.544 57.8227 135.544 57.6457C135.544 57.4687 135.578 57.3383 135.65 57.2483C135.721 57.1582 135.823 57.1147 135.963 57.1147C136.103 57.1147 136.209 57.1582 136.277 57.2483C136.345 57.3383 136.382 57.4687 136.382 57.6457C136.382 57.8227 136.348 57.9531 136.277 58.0432C136.205 58.1332 136.103 58.1767 135.963 58.1767Z"
                  fill="#C88346"/>
            <path d="M139.152 58.1983C138.798 58.1983 138.488 58.1269 138.217 57.9841C137.947 57.8412 137.739 57.6084 137.587 57.2885C137.438 56.9656 137.36 56.5433 137.36 56.0216C137.36 55.5 137.438 55.0652 137.59 54.7516C137.742 54.438 137.95 54.2144 138.208 54.0778C138.466 53.9443 138.761 53.876 139.087 53.876C139.304 53.876 139.519 53.9039 139.73 53.9629C139.941 54.0188 140.112 54.1058 140.249 54.2238C140.382 54.3417 140.45 54.4939 140.45 54.6864C140.45 54.8013 140.422 54.8914 140.37 54.9628C140.317 55.0342 140.236 55.0839 140.137 55.1149C140.034 55.146 139.91 55.1615 139.761 55.1615C139.761 54.8883 139.742 54.6585 139.702 54.4815C139.662 54.3014 139.593 54.171 139.497 54.084C139.401 53.9971 139.258 53.9567 139.078 53.9567C138.898 53.9567 138.724 54.0157 138.581 54.1306C138.435 54.2486 138.323 54.4535 138.242 54.7516C138.162 55.0497 138.121 55.4751 138.121 56.0309C138.121 56.5402 138.162 56.947 138.239 57.2544C138.317 57.5618 138.441 57.7853 138.612 57.9189C138.783 58.0524 139.003 58.1207 139.273 58.1207C139.444 58.1207 139.599 58.0928 139.736 58.0338C139.873 57.9779 139.994 57.8754 140.093 57.7357C140.196 57.5928 140.273 57.3972 140.329 57.1488C140.382 57.1581 140.422 57.1861 140.45 57.2264C140.478 57.2668 140.494 57.3258 140.494 57.3972C140.494 57.5214 140.444 57.6456 140.345 57.7667C140.245 57.8878 140.099 57.9903 139.901 58.0741C139.702 58.158 139.453 58.1983 139.155 58.1983H139.152Z"
                  fill="#C88346"/>
            <path d="M142.994 58.1985C142.435 58.1985 141.994 58.0184 141.671 57.6613C141.348 57.3042 141.189 56.7577 141.189 56.028C141.189 55.2983 141.345 54.7611 141.652 54.4071C141.96 54.0531 142.416 53.873 143.019 53.873C143.578 53.873 144.019 54.05 144.342 54.4071C144.661 54.7611 144.823 55.3014 144.823 56.028C144.823 56.7546 144.668 57.3042 144.36 57.6613C144.053 58.0184 143.596 58.1985 142.994 58.1985ZM143.009 58.1209C143.264 58.1209 143.469 58.0495 143.624 57.9097C143.779 57.77 143.891 57.5464 143.963 57.2421C144.034 56.9378 144.068 56.531 144.068 56.028C144.068 55.525 144.034 55.1275 143.963 54.8232C143.891 54.5189 143.779 54.2953 143.624 54.1587C143.469 54.0221 143.261 53.9538 143.003 53.9538C142.745 53.9538 142.543 54.0221 142.388 54.1587C142.233 54.2953 142.121 54.5189 142.05 54.8232C141.978 55.1306 141.944 55.5312 141.944 56.028C141.944 56.5248 141.978 56.9347 142.05 57.2421C142.121 57.5495 142.233 57.77 142.391 57.9097C142.55 58.0495 142.755 58.1209 143.009 58.1209Z"
                  fill="#C88346"/>
            <path d="M145.469 58.1209V58.0432H145.531C145.686 58.0432 145.811 58.0215 145.904 57.9811C145.997 57.9408 146.065 57.8756 146.106 57.7855C146.146 57.6986 146.168 57.5837 146.168 57.444V54.6369C146.168 54.491 146.146 54.3761 146.106 54.286C146.065 54.1991 145.997 54.1339 145.904 54.0904C145.811 54.05 145.686 54.0283 145.531 54.0283H145.506V53.9507H146.891V54.6897H146.907C146.978 54.463 147.078 54.2891 147.199 54.1711C147.32 54.0531 147.457 53.9755 147.606 53.9351C147.755 53.8948 147.91 53.873 148.065 53.873C148.342 53.873 148.587 53.9383 148.808 54.0718C149.028 54.2053 149.19 54.4537 149.295 54.8232H149.311C149.379 54.5438 149.472 54.3357 149.593 54.2022C149.714 54.0687 149.851 53.9786 150.003 53.9383C150.152 53.8979 150.301 53.8762 150.447 53.8762C150.891 53.8762 151.224 54.0035 151.438 54.2612C151.652 54.5189 151.761 54.9039 151.761 55.4225V57.4067C151.761 57.5619 151.783 57.6862 151.823 57.7793C151.863 57.8725 151.932 57.9408 152.028 57.9811C152.124 58.0215 152.249 58.0432 152.398 58.0432H152.422V58.1209H151.031V55.2673C151.031 54.8356 150.972 54.522 150.851 54.3264C150.733 54.1308 150.54 54.0314 150.277 54.0314C150.081 54.0314 149.91 54.0811 149.77 54.1836C149.631 54.286 149.525 54.432 149.457 54.6245C149.385 54.817 149.351 55.0499 149.351 55.3231V57.4067C149.351 57.5619 149.373 57.6862 149.413 57.7793C149.454 57.8725 149.522 57.9408 149.618 57.9811C149.714 58.0215 149.839 58.0432 149.988 58.0432H150.009V58.1209H148.618V55.2673C148.618 54.8356 148.556 54.522 148.435 54.3264C148.314 54.1308 148.115 54.0314 147.839 54.0314C147.631 54.0314 147.457 54.0842 147.317 54.1867C147.177 54.2891 147.072 54.4444 147.003 54.6524C146.932 54.8605 146.898 55.1182 146.898 55.4287V57.4036C146.898 57.5588 146.919 57.683 146.96 57.7762C147 57.8694 147.068 57.9377 147.165 57.978C147.261 58.0184 147.385 58.0401 147.534 58.0401H147.556V58.1178H145.463L145.469 58.1209Z"
                  fill="#C88346"/>
        </g>
    </g>
    <defs>
        <linearGradient id="paint0_linear_1711_2121" x1="35.7749" y1="0.452215" x2="35.7749" y2="62.5208"
                        gradientUnits="userSpaceOnUse">
            <stop stop-color="#EFE7B6"/>
            <stop offset="0.7" stop-color="#F6D796"/>
            <stop offset="1" stop-color="#C88347"/>
        </linearGradient>
        <linearGradient id="paint1_linear_1711_2121" x1="35.7754" y1="-7.58374" x2="35.7754" y2="62.316"
                        gradientUnits="userSpaceOnUse">
            <stop stop-color="#EFE7B6"/>
            <stop offset="0.7" stop-color="#F6D796"/>
            <stop offset="1" stop-color="#C88347"/>
        </linearGradient>
        <linearGradient id="paint2_linear_1711_2121" x1="81.9479" y1="10.2985" x2="81.9479" y2="47.4732"
                        gradientUnits="userSpaceOnUse">
            <stop stop-color="#EFE7B6"/>
            <stop offset="0.7" stop-color="#F6D796"/>
            <stop offset="1" stop-color="#C88347"/>
        </linearGradient>
        <linearGradient id="paint3_linear_1711_2121" x1="96.0227" y1="10.2986" x2="96.0227" y2="47.4733"
                        gradientUnits="userSpaceOnUse">
            <stop stop-color="#EFE7B6"/>
            <stop offset="0.7" stop-color="#F6D796"/>
            <stop offset="1" stop-color="#C88347"/>
        </linearGradient>
        <linearGradient id="paint4_linear_1711_2121" x1="109.451" y1="10.2987" x2="109.451" y2="47.4734"
                        gradientUnits="userSpaceOnUse">
            <stop stop-color="#EFE7B6"/>
            <stop offset="0.7" stop-color="#F6D796"/>
            <stop offset="1" stop-color="#C88347"/>
        </linearGradient>
        <linearGradient id="paint5_linear_1711_2121" x1="122.274" y1="10.2987" x2="122.274" y2="47.4734"
                        gradientUnits="userSpaceOnUse">
            <stop stop-color="#EFE7B6"/>
            <stop offset="0.7" stop-color="#F6D796"/>
            <stop offset="1" stop-color="#C88347"/>
        </linearGradient>
        <linearGradient id="paint6_linear_1711_2121" x1="134.826" y1="10.2983" x2="134.826" y2="47.4731"
                        gradientUnits="userSpaceOnUse">
            <stop stop-color="#EFE7B6"/>
            <stop offset="0.7" stop-color="#F6D796"/>
            <stop offset="1" stop-color="#C88347"/>
        </linearGradient>
        <linearGradient id="paint7_linear_1711_2121" x1="147.512" y1="10.2983" x2="147.512" y2="47.473"
                        gradientUnits="userSpaceOnUse">
            <stop stop-color="#EFE7B6"/>
            <stop offset="0.7" stop-color="#F6D796"/>
            <stop offset="1" stop-color="#C88347"/>
        </linearGradient>
        <linearGradient id="paint8_linear_1711_2121" x1="92.5752" y1="10.2984" x2="92.5752" y2="47.4731"
                        gradientUnits="userSpaceOnUse">
            <stop stop-color="#EFE7B6"/>
            <stop offset="0.7" stop-color="#F6D796"/>
            <stop offset="1" stop-color="#C88347"/>
        </linearGradient>
        <linearGradient id="paint9_linear_1711_2121" x1="108.761" y1="10.2982" x2="108.761" y2="47.4729"
                        gradientUnits="userSpaceOnUse">
            <stop stop-color="#EFE7B6"/>
            <stop offset="0.7" stop-color="#F6D796"/>
            <stop offset="1" stop-color="#C88347"/>
        </linearGradient>
        <linearGradient id="paint10_linear_1711_2121" x1="119.789" y1="10.2982" x2="119.789" y2="47.4729"
                        gradientUnits="userSpaceOnUse">
            <stop stop-color="#EFE7B6"/>
            <stop offset="0.7" stop-color="#F6D796"/>
            <stop offset="1" stop-color="#C88347"/>
        </linearGradient>
        <linearGradient id="paint11_linear_1711_2121" x1="127.86" y1="10.2982" x2="127.86" y2="47.473"
                        gradientUnits="userSpaceOnUse">
            <stop stop-color="#EFE7B6"/>
            <stop offset="0.7" stop-color="#F6D796"/>
            <stop offset="1" stop-color="#C88347"/>
        </linearGradient>
        <linearGradient id="paint12_linear_1711_2121" x1="137.894" y1="10.2985" x2="137.894" y2="47.4733"
                        gradientUnits="userSpaceOnUse">
            <stop stop-color="#EFE7B6"/>
            <stop offset="0.7" stop-color="#F6D796"/>
            <stop offset="1" stop-color="#C88347"/>
        </linearGradient>
        <linearGradient id="paint13_linear_1711_2121" x1="148.643" y1="10.2986" x2="148.643" y2="47.4733"
                        gradientUnits="userSpaceOnUse">
            <stop stop-color="#EFE7B6"/>
            <stop offset="0.7" stop-color="#F6D796"/>
            <stop offset="1" stop-color="#C88347"/>
        </linearGradient>
        <clipPath id="clip0_1711_2121">
            <rect width="156" height="64" fill="white" transform="translate(0 0.157227)"/>
        </clipPath>
        <clipPath id="clip1_1711_2121">
            <rect width="148.61" height="64" fill="white" transform="translate(3.8125 0.157227)"/>
        </clipPath>
    </defs>
</svg>
