<svg width="156" height="64" viewBox="0 0 156 64" fill="none" xmlns="http://www.w3.org/2000/svg">
    <g clip-path="url(#clip0_1269_15182)">
        <path d="M67.9217 31.9581C67.9217 49.4711 53.8349 63.6926 36.3723 63.9131C52.3659 63.6895 65.2664 50.6572 65.2664 34.613C65.2664 18.5687 52.1454 5.30979 35.9624 5.30979C19.7793 5.30979 6.65525 18.429 6.65525 34.613C6.65525 50.797 19.5526 63.6926 35.5493 63.9131C18.0868 63.6895 4 49.4711 4 31.9581C4 14.4451 18.3104 0 35.9624 0C53.6144 0 67.9248 14.3085 67.9248 31.9581H67.9217Z"
              fill="#74101A"/>
        <path d="M40.394 52.3339C40.3071 52.2594 40.217 52.1849 40.1238 52.1134C38.2356 50.654 36.8475 48.6357 36.3847 46.2944C36.1177 44.9406 35.9717 43.6302 35.9717 42.8167L35.9624 43.4532L35.9531 42.8167C35.9531 43.6302 35.8071 44.9406 35.54 46.2944C35.0773 48.6326 33.686 50.654 31.8009 52.1134C31.7078 52.1849 31.6177 52.2563 31.5307 52.3339C30.1146 53.5511 29.2202 55.3552 29.2202 57.3673C29.2202 61.0687 32.2512 64.0589 35.9655 63.9999C39.6797 64.0589 42.7108 61.0655 42.7108 57.3673C42.7108 55.3552 41.8163 53.5511 40.4002 52.3339H40.394Z"
              fill="#74101A"/>
        <path d="M75.9683 26.0116V25.7881H76.2571C76.6577 25.7881 76.9931 25.7291 77.2695 25.6111C77.5428 25.4931 77.7477 25.3161 77.8813 25.077C78.0148 24.841 78.08 24.5429 78.08 24.1889V11.874C78.08 11.5324 78.0148 11.2529 77.8813 11.0294C77.7477 10.8058 77.5428 10.6412 77.2695 10.5294C76.9962 10.4176 76.6577 10.3618 76.2571 10.3618H75.9683V10.1382H81.9247C83.8222 10.1382 85.2477 10.458 86.2042 11.0946C87.1607 11.7311 87.6389 12.672 87.6389 13.9171C87.6389 14.6593 87.4806 15.2927 87.1607 15.8175C86.8408 16.3422 86.3688 16.7552 85.7383 17.0502C85.1079 17.3483 84.3191 17.5315 83.3719 17.606V17.6495C85.1359 17.724 86.3998 18.1277 87.1607 18.8605C87.9246 19.5933 88.3066 20.5528 88.3066 21.739C88.3066 23.1767 87.8346 24.2479 86.8936 24.9497C85.9526 25.6546 84.5179 26.0054 82.5924 26.0054H75.9683V26.0116ZM81.8595 17.5874C82.6732 17.5874 83.3315 17.4725 83.8284 17.2427C84.3253 17.013 84.6887 16.6434 84.9185 16.1311C85.1483 15.6188 85.2632 14.948 85.2632 14.119C85.2632 12.7558 84.9992 11.7901 84.4744 11.2188C83.9495 10.6474 83.0613 10.3618 81.8191 10.3618H80.3285V17.5843H81.8626L81.8595 17.5874ZM82.4806 25.7912C83.7259 25.7912 84.611 25.4807 85.1359 24.8565C85.6607 24.2355 85.9247 23.1984 85.9247 21.7452C85.9247 20.7981 85.8098 20.0374 85.58 19.466C85.3501 18.8947 84.9868 18.4755 84.4899 18.2115C83.993 17.9445 83.3377 17.811 82.521 17.811H80.3191V25.7912H82.4744H82.4806Z"
              fill="#74101A"/>
        <path d="M95.4897 26.2198C94.263 26.2198 93.35 25.8968 92.7444 25.2479C92.1388 24.602 91.8375 23.5587 91.8375 22.1272V16.9075C91.8375 16.4355 91.7847 16.0629 91.6823 15.7896C91.5767 15.5195 91.3997 15.3238 91.1512 15.2058C90.8997 15.0878 90.5581 15.0288 90.1295 15.0288H90.0674V14.8208H93.8065V22.2328C93.8065 23.1239 93.8686 23.8381 93.9959 24.3722C94.1201 24.9094 94.3344 25.3006 94.6325 25.5522C94.9307 25.8037 95.3313 25.9279 95.8344 25.9279C96.4617 25.9279 96.9803 25.7633 97.3903 25.4373C97.8002 25.1112 98.1108 24.6299 98.3188 23.9965C98.5269 23.363 98.6325 22.6023 98.6325 21.7111V16.9075C98.6325 16.4355 98.5797 16.0629 98.4772 15.7896C98.3716 15.5195 98.1946 15.3238 97.9462 15.2058C97.6946 15.0878 97.353 15.0288 96.9244 15.0288H96.8623V14.8208H100.601V23.9468C100.601 24.4188 100.654 24.7914 100.757 25.0647C100.859 25.3379 101.039 25.5273 101.288 25.6391C101.539 25.7509 101.878 25.8068 102.313 25.8068H102.375V26.0148H98.7816V23.155H98.7412C98.6294 23.8661 98.4524 24.425 98.2101 24.8349C97.9679 25.2448 97.6884 25.5491 97.3748 25.7447C97.0611 25.9403 96.7412 26.0676 96.4151 26.1297C96.089 26.1918 95.7847 26.2229 95.5083 26.2229L95.4897 26.2198Z"
              fill="#74101A"/>
        <path d="M108.188 26.2198C107.285 26.2198 106.518 25.9994 105.89 25.5615C105.263 25.1237 104.791 24.4685 104.471 23.5991C104.151 22.7297 103.99 21.6615 103.99 20.3946C103.99 19.1277 104.145 18.044 104.459 17.1901C104.772 16.3331 105.238 15.6903 105.859 15.2587C106.48 14.8271 107.241 14.6128 108.145 14.6128C109.049 14.6128 109.834 14.8674 110.369 15.3767C110.906 15.8859 111.263 16.6684 111.443 17.7273H111.483C111.468 17.2274 111.459 16.7367 111.452 16.2554C111.446 15.7741 111.443 15.3363 111.443 14.9389V11.9828C111.443 11.5915 111.387 11.281 111.275 11.0419C111.164 10.8059 110.983 10.632 110.732 10.5203C110.48 10.4085 110.148 10.3526 109.729 10.3526H109.667V10.1445H113.406V24.1984C113.406 24.5741 113.462 24.8815 113.573 25.1175C113.685 25.3535 113.869 25.5274 114.126 25.6392C114.384 25.751 114.713 25.8068 115.117 25.8068H115.285V26.0149H111.462V23.0712H111.421C111.241 24.1425 110.881 24.9374 110.347 25.4529C109.81 25.9683 109.089 26.226 108.185 26.226L108.188 26.2198ZM108.542 25.9093C109.53 25.9093 110.263 25.456 110.735 24.5524C111.207 23.6488 111.446 22.2639 111.446 20.3977C111.446 19.1867 111.344 18.1775 111.142 17.3702C110.94 16.5629 110.629 15.9542 110.213 15.5444C109.797 15.1345 109.244 14.9296 108.564 14.9296C107.952 14.9296 107.459 15.1096 107.08 15.4729C106.704 15.8363 106.434 16.4169 106.266 17.218C106.098 18.0192 106.015 19.0749 106.015 20.3822C106.015 21.6894 106.098 22.7731 106.266 23.5867C106.434 24.4002 106.704 24.9933 107.08 25.3628C107.456 25.7323 107.943 25.9155 108.542 25.9155V25.9093Z"
              fill="#74101A"/>
        <path d="M121.011 26.2198C120.107 26.2198 119.34 25.9994 118.713 25.5615C118.086 25.1237 117.614 24.4685 117.294 23.5991C116.974 22.7297 116.812 21.6615 116.812 20.3946C116.812 19.1277 116.968 18.044 117.281 17.1901C117.595 16.3331 118.061 15.6903 118.682 15.2587C119.303 14.8271 120.064 14.6128 120.968 14.6128C121.871 14.6128 122.657 14.8674 123.191 15.3767C123.729 15.8859 124.086 16.6684 124.266 17.7273H124.306C124.291 17.2274 124.281 16.7367 124.275 16.2554C124.269 15.7741 124.266 15.3363 124.266 14.9389V11.9828C124.266 11.5915 124.21 11.281 124.098 11.0419C123.986 10.8059 123.806 10.632 123.555 10.5203C123.303 10.4085 122.971 10.3526 122.552 10.3526H122.489V10.1445H126.229V24.1984C126.229 24.5741 126.284 24.8815 126.396 25.1175C126.508 25.3535 126.691 25.5274 126.949 25.6392C127.207 25.751 127.536 25.8068 127.94 25.8068H128.107V26.0149H124.284V23.0712H124.244C124.064 24.1425 123.704 24.9374 123.17 25.4529C122.632 25.9683 121.912 26.226 121.008 26.226L121.011 26.2198ZM121.365 25.9093C122.353 25.9093 123.086 25.456 123.558 24.5524C124.03 23.6488 124.269 22.2639 124.269 20.3977C124.269 19.1867 124.166 18.1775 123.965 17.3702C123.763 16.5629 123.452 15.9542 123.036 15.5444C122.62 15.1345 122.067 14.9296 121.387 14.9296C120.775 14.9296 120.281 15.1096 119.903 15.4729C119.527 15.8363 119.257 16.4169 119.089 17.218C118.921 18.0192 118.837 19.0749 118.837 20.3822C118.837 21.6894 118.921 22.7731 119.089 23.5867C119.257 24.4002 119.527 24.9933 119.903 25.3628C120.278 25.7323 120.766 25.9155 121.365 25.9155V25.9093Z"
              fill="#74101A"/>
        <path d="M128.865 26.0117V25.8037H129.033C129.465 25.8037 129.806 25.7447 130.055 25.6267C130.306 25.5087 130.483 25.31 130.586 25.0305C130.691 24.751 130.741 24.3691 130.741 23.8816V12.228C130.741 11.756 130.688 11.3834 130.586 11.1102C130.48 10.84 130.312 10.6444 130.073 10.5264C129.837 10.4084 129.502 10.3494 129.07 10.3494H128.965V10.1414H132.704V15.9666C132.704 16.2305 132.698 16.5038 132.682 16.7801H132.722C132.918 16.125 133.188 15.6468 133.536 15.3394C133.884 15.0319 134.263 14.8363 134.673 14.7432C135.083 14.6531 135.461 14.6065 135.812 14.6065C137.052 14.6065 137.974 14.9295 138.579 15.5785C139.185 16.2243 139.486 17.2676 139.486 18.6991V23.8785C139.486 24.366 139.536 24.7479 139.632 25.0274C139.729 25.3069 139.893 25.5056 140.123 25.6236C140.353 25.7416 140.663 25.8006 141.051 25.8006H141.157V26.0086H137.524V17.9911C137.524 17.0876 137.356 16.3485 137.024 15.7772C136.688 15.2058 136.111 14.9202 135.291 14.9202C134.635 14.9202 134.12 15.0941 133.744 15.4418C133.368 15.7896 133.098 16.2398 132.94 16.7895C132.778 17.3391 132.701 17.9135 132.701 18.5128V23.8785C132.701 24.366 132.753 24.7479 132.856 25.0274C132.962 25.3069 133.135 25.5056 133.378 25.6236C133.62 25.7416 133.952 25.8006 134.368 25.8006H134.474V26.0086H128.856L128.865 26.0117Z"
              fill="#74101A"/>
        <path d="M146.241 26.2197C145.182 26.2197 144.343 25.9465 143.725 25.3938C143.104 24.8442 142.797 24.0896 142.797 23.127C142.797 22.0557 143.191 21.2546 143.977 20.7267C144.762 20.1989 145.958 19.9039 147.557 19.8511L149.29 19.789V18.224C149.29 17.4446 149.25 16.805 149.166 16.3019C149.082 15.802 148.902 15.4294 148.623 15.1841C148.343 14.9419 147.918 14.8177 147.349 14.8177C146.542 14.8177 146.023 15.0692 145.793 15.5691C145.564 16.069 145.449 16.8577 145.449 17.929C144.865 17.929 144.421 17.8328 144.123 17.6371C143.821 17.4415 143.672 17.1217 143.672 16.6776C143.672 16.1777 143.843 15.7772 144.185 15.476C144.526 15.1779 144.983 14.9574 145.554 14.8177C146.126 14.6779 146.75 14.6096 147.433 14.6096C148.713 14.6096 149.672 14.8798 150.306 15.4232C150.939 15.9666 151.256 16.8981 151.256 18.2209V24.4653C151.256 24.8007 151.297 25.0646 151.38 25.2602C151.464 25.4559 151.604 25.5956 151.797 25.6763C151.989 25.7571 152.244 25.8005 152.548 25.8005H152.61V26.0086H149.458V23.8164H149.418C149.278 24.3722 149.054 24.8286 148.75 25.1826C148.443 25.5366 148.079 25.7974 147.654 25.9651C147.228 26.1328 146.759 26.2166 146.244 26.2166L146.241 26.2197ZM146.657 25.9278C147.172 25.9278 147.629 25.7943 148.026 25.5304C148.424 25.2665 148.731 24.9125 148.955 24.4653C149.179 24.0213 149.29 23.54 149.29 23.0245V20.0188L147.955 20.0809C146.772 20.1368 145.952 20.4069 145.502 20.8944C145.048 21.3819 144.821 22.2017 144.821 23.3599C144.821 23.9157 144.887 24.3877 145.02 24.7696C145.154 25.1516 145.359 25.4403 145.635 25.636C145.915 25.8316 146.256 25.9278 146.66 25.9278H146.657Z"
              fill="#74101A"/>
        <path d="M83.3192 33.3958C83.2291 33.0977 83.1204 32.8617 82.9931 32.6909C82.8657 32.5202 82.7012 32.396 82.4993 32.3214C82.2974 32.2469 82.0397 32.2097 81.726 32.2097H81.4341V31.9861H87.5955V32.2097H87.08C86.6173 32.2097 86.2756 32.278 86.0614 32.4115C85.844 32.545 85.7353 32.7779 85.7353 33.107C85.7353 33.1971 85.7415 33.2933 85.757 33.3989C85.7725 33.5045 85.7943 33.6163 85.8253 33.7343C85.8564 33.8554 85.8843 33.9796 85.9154 34.1162L88.3129 42.0033C88.4464 42.4504 88.5738 42.9037 88.6949 43.3602C88.8129 43.8167 88.9278 44.2793 89.0303 44.7482C89.1359 45.2202 89.2321 45.7015 89.3222 46.1921C89.4123 45.7605 89.5365 45.2326 89.6918 44.6116C89.847 43.9905 90.0178 43.3229 90.1949 42.6057L92.8625 32.1444H93.8035L97.0737 41.8449C97.2817 42.4566 97.4743 43.0528 97.6451 43.6272C97.8159 44.2017 97.9712 44.7327 98.1047 45.2171C98.2382 45.7015 98.3438 46.1176 98.4184 46.4591C98.5084 46.1145 98.5799 45.8443 98.6327 45.6425C98.6854 45.4406 98.7444 45.214 98.8128 44.9593C98.8811 44.7047 98.9743 44.3476 99.0923 43.885L101.58 34.4764C101.654 34.2218 101.707 33.9982 101.735 33.8057C101.766 33.6132 101.779 33.4393 101.779 33.2902C101.779 32.8866 101.654 32.6071 101.409 32.4487C101.164 32.2935 100.779 32.2128 100.254 32.2128H99.7382V31.9892H104.086V32.2128H103.661C103.347 32.2128 103.086 32.2655 102.875 32.368C102.667 32.4736 102.49 32.6506 102.347 32.9052C102.204 33.1598 102.074 33.5107 101.956 33.9578L98.2351 47.9838H96.8904L92.4526 34.6099L89.1359 47.9838H87.7477L83.3098 33.3989L83.3192 33.3958Z"
              fill="#74101A"/>
        <path d="M108.918 48.1887C107.415 48.1887 106.232 47.7074 105.369 46.7479C104.505 45.7885 104.073 44.3259 104.073 42.3635C104.073 40.401 104.487 38.9634 105.316 38.0101C106.145 37.0568 107.365 36.5786 108.98 36.5786C110.483 36.5786 111.667 37.0568 112.53 38.0101C113.393 38.9634 113.825 40.4166 113.825 42.3635C113.825 44.3104 113.412 45.7885 112.583 46.7479C111.754 47.7074 110.533 48.1887 108.918 48.1887ZM108.962 47.9807C109.645 47.9807 110.195 47.7913 110.611 47.4155C111.03 47.0398 111.331 46.4405 111.521 45.6208C111.71 44.7979 111.803 43.7142 111.803 42.3635C111.803 41.0127 111.71 39.9477 111.521 39.1279C111.331 38.3051 111.03 37.712 110.611 37.3425C110.195 36.973 109.636 36.7898 108.94 36.7898C108.244 36.7898 107.707 36.973 107.291 37.3425C106.875 37.712 106.57 38.3051 106.384 39.1279C106.195 39.9508 106.101 41.0283 106.101 42.3635C106.101 43.6987 106.195 44.801 106.384 45.6208C106.57 46.4436 106.878 47.0398 107.303 47.4155C107.729 47.7913 108.282 47.9807 108.965 47.9807H108.962Z"
              fill="#74101A"/>
        <path d="M115.456 47.9807V47.7726H115.726C116.145 47.7726 116.477 47.7167 116.729 47.605C116.98 47.4932 117.16 47.3193 117.272 47.0833C117.384 46.8473 117.44 46.5399 117.44 46.1642V38.6249C117.44 38.2368 117.384 37.9231 117.272 37.684C117.16 37.4481 116.98 37.2742 116.729 37.1624C116.477 37.0506 116.145 36.9947 115.726 36.9947H115.664V36.7867H119.381V38.8733H119.421C119.518 38.51 119.664 38.156 119.859 37.8082C120.055 37.4605 120.35 37.1686 120.747 36.9326C121.145 36.6966 121.676 36.5786 122.344 36.5786C123.011 36.5786 123.573 36.7152 123.943 36.9854C124.313 37.2555 124.496 37.6375 124.496 38.125C124.496 38.5411 124.347 38.8919 124.045 39.1683C123.747 39.4478 123.247 39.5875 122.552 39.5875C122.552 38.7243 122.406 38.1281 122.114 37.802C121.822 37.476 121.493 37.3114 121.132 37.3114C120.729 37.3114 120.409 37.4543 120.173 37.7399C119.937 38.0256 119.763 38.3951 119.651 38.8454C119.539 39.2987 119.471 39.7645 119.443 40.2458C119.415 40.7271 119.403 41.168 119.403 41.5717V46.0617C119.403 46.4809 119.459 46.8132 119.57 47.0647C119.682 47.3162 119.865 47.4963 120.123 47.6081C120.381 47.7199 120.71 47.7757 121.114 47.7757H121.384V47.9838H115.452L115.456 47.9807Z"
              fill="#74101A"/>
        <path d="M125.083 47.9807V47.7727H125.356C125.772 47.7727 126.108 47.7168 126.359 47.605C126.611 47.4932 126.791 47.3193 126.903 47.0833C127.014 46.8473 127.07 46.5399 127.07 46.1642V33.9486C127.07 33.5573 127.014 33.2468 126.903 33.0077C126.791 32.7717 126.611 32.5979 126.359 32.4861C126.108 32.3743 125.775 32.3184 125.356 32.3184H125.083V32.1104H129.03V46.0586C129.03 46.4778 129.086 46.8101 129.198 47.0616C129.309 47.3131 129.49 47.4932 129.741 47.605C129.993 47.7168 130.325 47.7727 130.744 47.7727H131.017V47.9807H125.086H125.083Z"
              fill="#74101A"/>
        <path d="M136.632 48.1888C135.729 48.1888 134.962 47.9684 134.334 47.5305C133.707 47.0927 133.235 46.4375 132.915 45.5681C132.595 44.6987 132.434 43.6305 132.434 42.3636C132.434 41.0967 132.589 40.013 132.903 39.1591C133.216 38.3021 133.682 37.6593 134.303 37.2277C134.924 36.7961 135.685 36.5818 136.589 36.5818C137.493 36.5818 138.278 36.8364 138.812 37.3457C139.35 37.8549 139.707 38.6374 139.887 39.6963H139.927C139.912 39.1963 139.902 38.7057 139.896 38.2244C139.89 37.7431 139.887 37.3053 139.887 36.9079V33.9518C139.887 33.5605 139.831 33.25 139.719 33.0109C139.607 32.7749 139.427 32.601 139.176 32.4892C138.924 32.3775 138.592 32.3216 138.173 32.3216H138.111V32.1135H141.85V46.1674C141.85 46.5431 141.906 46.8505 142.017 47.0865C142.129 47.3225 142.312 47.4964 142.57 47.6082C142.828 47.72 143.157 47.7758 143.561 47.7758H143.728V47.9839H139.906V45.0402H139.865C139.685 46.1115 139.325 46.9064 138.791 47.4219C138.253 47.9373 137.533 48.195 136.629 48.195L136.632 48.1888ZM136.986 47.8752C137.974 47.8752 138.707 47.4219 139.179 46.5183C139.651 45.6147 139.89 44.2298 139.89 42.3636C139.89 41.1526 139.788 40.1434 139.586 39.3361C139.384 38.5287 139.073 37.9201 138.657 37.5103C138.241 37.1004 137.688 36.8954 137.008 36.8954C136.396 36.8954 135.903 37.0755 135.524 37.4388C135.148 37.8021 134.878 38.3828 134.71 39.1839C134.542 39.9851 134.458 41.0408 134.458 42.3481C134.458 43.6553 134.542 44.739 134.71 45.5526C134.878 46.3661 135.148 46.9592 135.524 47.3287C135.899 47.6982 136.387 47.8814 136.986 47.8814V47.8752Z"
              fill="#74101A"/>
        <path d="M148.579 48.1886C147.884 48.1886 147.269 48.1048 146.741 47.9371C146.213 47.7694 145.797 47.5241 145.499 47.195C145.201 46.8689 145.048 46.4622 145.048 45.9746C145.048 45.5989 145.126 45.307 145.278 45.099C145.43 44.891 145.607 44.745 145.809 44.6612C146.011 44.5773 146.194 44.537 146.362 44.537C146.362 45.2884 146.43 45.9188 146.57 46.428C146.71 46.9372 146.946 47.3223 147.281 47.5862C147.617 47.8502 148.061 47.9837 148.617 47.9837C149.356 47.9837 149.94 47.7912 150.371 47.4092C150.803 47.0273 151.017 46.459 151.017 45.7076C151.017 45.2201 150.933 44.8351 150.766 44.5494C150.598 44.2637 150.325 44.0091 149.94 43.7886C149.558 43.5651 149.023 43.3073 148.34 43.0155C147.545 42.6677 146.921 42.3292 146.461 42.0032C146.002 41.6771 145.676 41.3169 145.48 40.9288C145.284 40.5407 145.188 40.0811 145.188 39.5501C145.188 38.6031 145.523 37.8764 146.191 37.3672C146.859 36.858 147.784 36.6064 148.968 36.6064C149.635 36.6064 150.21 36.6934 150.691 36.8673C151.173 37.0412 151.536 37.2741 151.787 37.5659C152.039 37.8578 152.163 38.1776 152.163 38.5254C152.163 38.9011 152.033 39.2054 151.778 39.4352C151.52 39.665 151.148 39.7799 150.66 39.7799C150.66 38.7086 150.514 37.9448 150.222 37.4945C149.93 37.0412 149.477 36.8145 148.865 36.8145C148.393 36.8145 147.999 36.8921 147.685 37.0443C147.371 37.1964 147.135 37.42 146.974 37.7119C146.812 38.0038 146.735 38.3733 146.735 38.8173C146.735 39.3048 146.831 39.693 147.027 39.9879C147.222 40.2798 147.523 40.5313 147.933 40.7394C148.343 40.9474 148.856 41.1865 149.468 41.4505C150.263 41.7703 150.887 42.0932 151.346 42.4224C151.806 42.7484 152.129 43.1117 152.318 43.5092C152.505 43.9066 152.601 44.3755 152.601 44.9189C152.601 46.0057 152.238 46.8223 151.514 47.372C150.791 47.9216 149.809 48.1979 148.57 48.1979L148.579 48.1886Z"
              fill="#74101A"/>
        <path d="M136.151 58.0195C136.011 58.0195 135.905 57.976 135.837 57.886C135.769 57.7959 135.731 57.6655 135.731 57.4885C135.731 57.3115 135.766 57.1811 135.837 57.091C135.908 57.001 136.011 56.9575 136.151 56.9575C136.29 56.9575 136.396 57.001 136.464 57.091C136.533 57.1811 136.57 57.3115 136.57 57.4885C136.57 57.6655 136.536 57.7959 136.464 57.886C136.393 57.976 136.29 58.0195 136.151 58.0195Z"
              fill="#74101A"/>
        <path d="M139.34 58.0413C138.986 58.0413 138.675 57.9699 138.405 57.8271C138.135 57.6843 137.927 57.4514 137.775 57.1315C137.626 56.8086 137.548 56.3863 137.548 55.8646C137.548 55.343 137.626 54.9083 137.778 54.5946C137.93 54.281 138.138 54.0575 138.396 53.9208C138.654 53.7873 138.949 53.719 139.275 53.719C139.492 53.719 139.706 53.7469 139.918 53.8059C140.129 53.8618 140.3 53.9488 140.436 54.0668C140.57 54.1848 140.638 54.3369 140.638 54.5294C140.638 54.6443 140.61 54.7344 140.557 54.8058C140.505 54.8772 140.424 54.9269 140.324 54.9579C140.222 54.989 140.098 55.0045 139.949 55.0045C139.949 54.7313 139.93 54.5015 139.89 54.3245C139.849 54.1444 139.781 54.014 139.685 53.927C139.588 53.8401 139.446 53.7997 139.265 53.7997C139.085 53.7997 138.911 53.8587 138.769 53.9736C138.623 54.0916 138.511 54.2966 138.43 54.5946C138.349 54.8927 138.309 55.3181 138.309 55.874C138.309 56.3832 138.349 56.79 138.427 57.0974C138.505 57.4048 138.629 57.6284 138.8 57.7619C138.97 57.8954 139.191 57.9637 139.461 57.9637C139.632 57.9637 139.787 57.9358 139.924 57.8768C140.06 57.8209 140.182 57.7184 140.281 57.5787C140.383 57.4358 140.461 57.2402 140.517 56.9918C140.57 57.0011 140.61 57.0291 140.638 57.0694C140.666 57.1098 140.682 57.1688 140.682 57.2402C140.682 57.3644 140.632 57.4886 140.533 57.6097C140.433 57.7308 140.287 57.8333 140.088 57.9171C139.89 58.001 139.641 58.0413 139.343 58.0413H139.34Z"
              fill="#74101A"/>
        <path d="M143.182 58.0413C142.623 58.0413 142.182 57.8612 141.859 57.5041C141.536 57.147 141.377 56.6005 141.377 55.8708C141.377 55.1411 141.533 54.6039 141.84 54.2499C142.148 53.8959 142.604 53.7158 143.207 53.7158C143.766 53.7158 144.207 53.8928 144.53 54.2499C144.849 54.6039 145.011 55.1442 145.011 55.8708C145.011 56.5974 144.856 57.147 144.548 57.5041C144.241 57.8612 143.784 58.0413 143.182 58.0413ZM143.197 57.9636C143.452 57.9636 143.657 57.8922 143.812 57.7525C143.967 57.6128 144.079 57.3892 144.151 57.0849C144.222 56.7806 144.256 56.3738 144.256 55.8708C144.256 55.3677 144.222 54.9703 144.151 54.666C144.079 54.3617 143.967 54.1381 143.812 54.0015C143.657 53.8649 143.449 53.7966 143.191 53.7966C142.933 53.7966 142.731 53.8649 142.576 54.0015C142.421 54.1381 142.309 54.3617 142.238 54.666C142.166 54.9734 142.132 55.374 142.132 55.8708C142.132 56.3676 142.166 56.7775 142.238 57.0849C142.309 57.3923 142.421 57.6128 142.579 57.7525C142.738 57.8922 142.943 57.9636 143.197 57.9636Z"
              fill="#74101A"/>
        <path d="M145.657 57.9636V57.886H145.719C145.874 57.886 145.998 57.8643 146.092 57.8239C146.185 57.7835 146.253 57.7183 146.293 57.6283C146.334 57.5413 146.356 57.4265 146.356 57.2867V54.4797C146.356 54.3337 146.334 54.2189 146.293 54.1288C146.253 54.0419 146.185 53.9767 146.092 53.9332C145.998 53.8928 145.874 53.8711 145.719 53.8711H145.694V53.7934H147.079V54.5325H147.095C147.166 54.3058 147.266 54.1319 147.387 54.0139C147.508 53.8959 147.644 53.8183 147.793 53.7779C147.943 53.7376 148.098 53.7158 148.253 53.7158C148.529 53.7158 148.775 53.781 148.995 53.9145C149.216 54.0481 149.377 54.2965 149.483 54.666H149.498C149.567 54.3865 149.66 54.1785 149.781 54.045C149.902 53.9114 150.039 53.8214 150.191 53.781C150.34 53.7407 150.489 53.7189 150.635 53.7189C151.079 53.7189 151.411 53.8462 151.626 54.104C151.84 54.3617 151.949 54.7467 151.949 55.2653V57.2495C151.949 57.4047 151.97 57.5289 152.011 57.6221C152.051 57.7152 152.12 57.7835 152.216 57.8239C152.312 57.8643 152.436 57.886 152.585 57.886H152.61V57.9636H151.219V55.11C151.219 54.6784 151.16 54.3648 151.039 54.1692C150.921 53.9735 150.728 53.8742 150.464 53.8742C150.269 53.8742 150.098 53.9239 149.958 54.0263C149.818 54.1288 149.713 54.2747 149.644 54.4673C149.573 54.6598 149.539 54.8927 149.539 55.1659V57.2495C149.539 57.4047 149.561 57.5289 149.601 57.6221C149.641 57.7152 149.71 57.7835 149.806 57.8239C149.902 57.8643 150.026 57.886 150.175 57.886H150.197V57.9636H148.806V55.11C148.806 54.6784 148.744 54.3648 148.623 54.1692C148.502 53.9735 148.303 53.8742 148.026 53.8742C147.818 53.8742 147.644 53.927 147.505 54.0294C147.365 54.1319 147.259 54.2872 147.191 54.4952C147.12 54.7033 147.085 54.961 147.085 55.2715V57.2464C147.085 57.4016 147.107 57.5258 147.148 57.619C147.188 57.7121 147.256 57.7804 147.352 57.8208C147.449 57.8612 147.573 57.8829 147.722 57.8829H147.744V57.9605H145.651L145.657 57.9636Z"
              fill="#74101A"/>
    </g>
    <defs>
        <clipPath id="clip0_1269_15182">
            <rect width="148.61" height="64" fill="white" transform="translate(4)"/>
        </clipPath>
    </defs>
</svg>
