<svg width="80" height="80" viewBox="0 0 80 80" fill="none" xmlns="http://www.w3.org/2000/svg">
    <path d="M62.7737 7.75977H28.0288C26.1833 7.75977 24.6873 9.25581 24.6873 11.1013V65.1728C24.6873 67.0182 26.1833 68.5143 28.0288 68.5143H62.7737C64.6191 68.5143 66.1152 67.0182 66.1152 65.1728V11.1013C66.1152 9.25581 64.6191 7.75977 62.7737 7.75977Z"
          fill="#FFEFF1"/>
    <path d="M55.4283 27.2307V69.3662C55.4283 71.211 53.9316 72.7076 52.0831 72.7076H17.3419C15.4933 72.7076 14.0004 71.211 14.0004 69.3662V20.5588C14.0004 18.7139 15.4933 17.2173 17.3419 17.2173H44.7999L55.4283 27.2307Z"
          fill="url(#paint0_linear_3494_40671)"/>
    <path d="M48.767 27.6271L55.4278 27.2307L44.7994 17.2173L45.2329 24.4893C45.344 26.3342 46.9258 27.7382 48.767 27.6308V27.6271Z"
          fill="#F97D8F"/>
    <path d="M49.6195 49.4805H20.1536C19.6973 49.4805 19.3275 49.8503 19.3275 50.3066V50.3103C19.3275 50.7665 19.6973 51.1364 20.1536 51.1364H49.6195C50.0758 51.1364 50.4456 50.7665 50.4456 50.3103V50.3066C50.4456 49.8503 50.0758 49.4805 49.6195 49.4805Z"
          fill="#F97D8F"/>
    <path d="M49.6195 53.6885H20.1536C19.6973 53.6885 19.3275 54.0583 19.3275 54.5146V54.5183C19.3275 54.9745 19.6973 55.3444 20.1536 55.3444H49.6195C50.0758 55.3444 50.4456 54.9745 50.4456 54.5183V54.5146C50.4456 54.0583 50.0758 53.6885 49.6195 53.6885Z"
          fill="#F97D8F"/>
    <path d="M49.6195 57.897H20.1536C19.6973 57.897 19.3275 58.2668 19.3275 58.7231V58.7268C19.3275 59.183 19.6973 59.5529 20.1536 59.5529H49.6195C50.0758 59.5529 50.4456 59.183 50.4456 58.7268V58.7231C50.4456 58.2668 50.0758 57.897 49.6195 57.897Z"
          fill="#F97D8F"/>
    <path d="M49.6195 62.1055H20.1536C19.6973 62.1055 19.3275 62.4753 19.3275 62.9316V62.9353C19.3275 63.3915 19.6973 63.7614 20.1536 63.7614H49.6195C50.0758 63.7614 50.4456 63.3915 50.4456 62.9353V62.9316C50.4456 62.4753 50.0758 62.1055 49.6195 62.1055Z"
          fill="#F97D8F"/>
    <path d="M49.6195 66.314H20.1536C19.6973 66.314 19.3275 66.6838 19.3275 67.1401V67.1438C19.3275 67.6 19.6973 67.9699 20.1536 67.9699H49.6195C50.0758 67.9699 50.4456 67.6 50.4456 67.1438V67.1401C50.4456 66.6838 50.0758 66.314 49.6195 66.314Z"
          fill="#F97D8F"/>
    <path d="M26.3031 36.4034C27.1521 36.4034 27.8405 35.7151 27.8405 34.866C27.8405 34.0169 27.1521 33.3286 26.3031 33.3286C25.454 33.3286 24.7657 34.0169 24.7657 34.866C24.7657 35.7151 25.454 36.4034 26.3031 36.4034Z"
          fill="white"/>
    <path d="M41.5773 36.4034C42.4264 36.4034 43.1147 35.7151 43.1147 34.866C43.1147 34.0169 42.4264 33.3286 41.5773 33.3286C40.7282 33.3286 40.0399 34.0169 40.0399 34.866C40.0399 35.7151 40.7282 36.4034 41.5773 36.4034Z"
          fill="white"/>
    <path d="M38.7431 37.3741C38.7431 40.0525 36.5722 41.8418 33.8939 41.8418C31.2155 41.8418 29.0446 40.0488 29.0446 37.3741"
          stroke="white" stroke-width="1.11553" stroke-miterlimit="10"/>
    <defs>
        <linearGradient id="paint0_linear_3494_40671" x1="34.7143" y1="17.2173" x2="34.7143" y2="72.7077"
                        gradientUnits="userSpaceOnUse">
            <stop stop-color="#FFDCE0"/>
            <stop offset="1" stop-color="#FF9EA8"/>
        </linearGradient>
    </defs>
</svg>
