<svg width="80" height="80" viewBox="0 0 80 80" fill="none" xmlns="http://www.w3.org/2000/svg">
    <g clip-path="url(#clip0_2250_12717)">
        <path d="M66.6684 0H23.8713C21.5981 0 19.7554 1.84275 19.7554 4.1159V70.7186C19.7554 72.9918 21.5981 74.8345 23.8713 74.8345H66.6684C68.9415 74.8345 70.7843 72.9918 70.7843 70.7186V4.1159C70.7843 1.84275 68.9415 0 66.6684 0Z"
              fill="#FFEFF1"/>
        <path d="M58.0289 23.9837V75.8841C58.0289 78.1566 56.1854 80 53.9085 80H11.1159C8.83892 80 7 78.1566 7 75.8841V15.7656C7 13.4931 8.83892 11.6497 11.1159 11.6497H44.9374L58.0289 23.9837Z"
              fill="url(#paint0_linear_2250_12717)"/>
        <path d="M49.4159 24.4719L57.6203 23.9837L44.5288 11.6497L45.0627 20.607C45.1996 22.8794 47.148 24.6088 49.4159 24.4765V24.4719Z"
              fill="#F97D8F"/>
        <path d="M50.4661 61.7566H14.1714C13.6094 61.7566 13.1538 62.2122 13.1538 62.7742V62.7787C13.1538 63.3407 13.6094 63.7963 14.1714 63.7963H50.4661C51.0281 63.7963 51.4837 63.3407 51.4837 62.7787V62.7742C51.4837 62.2122 51.0281 61.7566 50.4661 61.7566Z"
              fill="#F97D8F"/>
        <path d="M50.4661 66.9404H14.1714C13.6094 66.9404 13.1538 67.396 13.1538 67.958V67.9626C13.1538 68.5245 13.6094 68.9801 14.1714 68.9801H50.4661C51.0281 68.9801 51.4837 68.5245 51.4837 67.9626V67.958C51.4837 67.396 51.0281 66.9404 50.4661 66.9404Z"
              fill="#F97D8F"/>
        <path d="M50.4661 72.1238H14.1714C13.6094 72.1238 13.1538 72.5794 13.1538 73.1413V73.1459C13.1538 73.7079 13.6094 74.1635 14.1714 74.1635H50.4661C51.0281 74.1635 51.4837 73.7079 51.4837 73.1459V73.1413C51.4837 72.5794 51.0281 72.1238 50.4661 72.1238Z"
              fill="#F97D8F"/>
        <path d="M22.8937 40.1196C23.9395 40.1196 24.7874 39.2718 24.7874 38.226C24.7874 37.1801 23.9395 36.3323 22.8937 36.3323C21.8478 36.3323 21 37.1801 21 38.226C21 39.2718 21.8478 40.1196 22.8937 40.1196Z"
              fill="white"/>
        <path d="M41.7072 40.1196C42.753 40.1196 43.6008 39.2718 43.6008 38.226C43.6008 37.1801 42.753 36.3323 41.7072 36.3323C40.6613 36.3323 39.8135 37.1801 39.8135 38.226C39.8135 39.2718 40.6613 40.1196 41.7072 40.1196Z"
              fill="white"/>
        <path d="M38 43.4772C38 46.7763 35.326 48.9802 32.0269 48.9802C28.7278 48.9802 26.0539 46.7717 26.0539 43.4771"
              stroke="white" stroke-width="1.37406" stroke-miterlimit="10"/>
        <path d="M26.6763 26.4422L20.5022 23.8781L14.328 26.4422C13.6957 26.7048 13 26.241 13 25.5562V12C13 10.8954 13.8954 10 15 10H26C27.1046 10 28 10.8954 28 12V25.5562C28 26.241 27.3043 26.7048 26.672 26.4422H26.6763Z"
              fill="#EF1329"/>
    </g>
    <defs>
        <linearGradient id="paint0_linear_2250_12717" x1="32.5145" y1="11.6497" x2="32.5145" y2="80"
                        gradientUnits="userSpaceOnUse">
            <stop stop-color="#FFDCE0"/>
            <stop offset="1" stop-color="#FF9EA8"/>
        </linearGradient>
        <clipPath id="clip0_2250_12717">
            <rect width="80" height="80" fill="white"/>
        </clipPath>
    </defs>
</svg>
