<svg width="80" height="80" viewBox="0 0 80 80" fill="none" xmlns="http://www.w3.org/2000/svg">
    <path d="M69.0161 53.3603C69.0161 53.7203 68.9857 54.0739 68.9281 54.4195C68.8097 55.1331 68.5745 55.8066 68.2385 56.4178C67.9058 57.0354 67.4722 57.5922 66.9586 58.0658C65.8162 59.1282 64.2866 59.773 62.6051 59.773H11.2477L11.9293 59.101C12.2589 58.7778 12.5549 58.4306 12.8157 58.0658C13.1917 57.5474 13.4972 56.9954 13.7292 56.4178C13.9948 55.773 14.1708 55.0995 14.2588 54.4195C14.3324 53.8739 14.35 53.3187 14.3052 52.7715C14.2588 52.0963 14.1244 51.4243 13.902 50.7763C13.7132 50.2052 13.454 49.6532 13.1277 49.1284C12.7981 48.5908 12.3981 48.0852 11.9277 47.6212L11.2461 46.9492H62.6051C64.3762 46.9492 65.9794 47.6692 67.1378 48.8276C67.2338 48.9236 67.3298 49.026 67.4178 49.13C67.8514 49.618 68.2081 50.1732 68.4721 50.7779C68.7473 51.3987 68.9249 52.0675 68.9889 52.7731C69.0081 52.9651 69.0161 53.1635 69.0161 53.3603Z"
          fill="#FFDFE2"/>
    <path d="M74.1423 75.5951L74.8639 76.3087H10.3212C9.16281 76.3087 8.07483 76.0207 7.11965 75.5071C6.52446 75.1919 5.98047 74.7871 5.50528 74.3135C5.35968 74.1679 5.22208 74.0175 5.09409 73.8607C4.6413 73.3231 4.2733 72.7135 4.00771 72.0511C3.79651 71.5296 3.64772 70.9776 3.57412 70.4032C3.53092 70.1072 3.51172 69.8048 3.51172 69.4976C3.51172 69.1904 3.53092 68.888 3.57412 68.592C3.64772 68.0176 3.79651 67.4656 4.00771 66.9441C4.2733 66.2817 4.6413 65.6737 5.09409 65.1345C5.65088 64.4625 6.34046 63.8993 7.11965 63.4865C8.07483 62.9729 9.16281 62.6849 10.3212 62.6849H74.8639L74.1423 63.3985C74.1119 63.4289 74.0847 63.4561 74.0575 63.4865C73.5551 63.9937 73.1295 64.5457 72.7839 65.1345C72.4415 65.7105 72.1712 66.3185 71.9791 66.9441C71.8096 67.4816 71.696 68.0368 71.6384 68.592C71.5728 69.1936 71.5728 69.8032 71.6384 70.4032C71.696 70.9584 71.808 71.512 71.9791 72.0511C72.1712 72.6767 72.4399 73.2831 72.7839 73.8607C73.1295 74.4479 73.5551 74.9999 74.0575 75.5087C74.0847 75.5391 74.1119 75.5663 74.1423 75.5967V75.5951Z"
          fill="#FFDFE2"/>
    <path d="M55.543 29.0168H52.1719V27.6152C52.1719 25.9385 50.8119 24.5785 49.1352 24.5785H24.8492C23.1725 24.5785 21.8125 25.9385 21.8125 27.6152V33.5479C21.8125 38.631 24.7708 41.7925 27.4172 43.5397C28.1148 44.0005 28.9324 44.2405 29.7675 44.2469L36.6122 44.2933V44.2981L36.993 44.2949L37.3738 44.2981V44.2933L44.2185 44.2469C45.0536 44.2405 45.8712 44.0005 46.5688 43.5397C48.052 42.5605 49.6327 41.1382 50.7351 39.1798H53.9863C56.9094 39.1798 59.2789 36.8102 59.2789 33.8871V32.7495C59.2789 30.6872 57.607 29.0168 55.5462 29.0168H55.543ZM56.647 34.1703C56.647 35.6023 55.4854 36.7638 54.0535 36.7638H51.7383C52.0135 35.7895 52.1719 34.7207 52.1719 33.5479V31.2952H55.4022C56.0886 31.2952 56.647 31.8519 56.647 32.5399V34.1703Z"
          fill="url(#paint0_linear_1850_18921)"/>
    <path d="M37.6868 -0.000244141C37.6868 -0.000244141 31.7637 3.15329 32.6053 9.95316C32.6053 9.95316 33.3413 6.79962 35.8997 5.29245C38.458 3.78528 37.6868 -0.000244141 37.6868 -0.000244141Z"
          fill="url(#paint1_linear_1850_18921)"/>
    <path d="M37.3719 5.81738C37.3719 5.81738 32.4648 10.3741 33.7271 14.79C34.9895 19.2059 37.0215 20.4683 37.3719 23.4122C37.3719 23.4122 40.9462 17.7339 39.9654 14.0204C38.9846 10.3053 37.7223 9.8845 37.3719 5.81898V5.81738Z"
          fill="url(#paint2_linear_1850_18921)"/>
    <path d="M68.9832 53.3731C69.0152 55.1939 68.292 56.8467 67.1032 58.0354C65.9144 59.2242 64.3337 59.9186 62.5593 59.9186H10.4499C8.92197 59.9186 7.68359 61.157 7.68359 62.6849H63.1097C65.6488 62.6849 67.9464 61.6562 69.6088 59.9906C71.3207 58.2802 72.3591 55.9011 72.2999 53.2771C72.1863 48.2532 67.9496 44.2965 62.9241 44.2965H7.68359C7.68359 45.8245 8.92197 47.0629 10.4499 47.0629H62.4137C65.9416 47.0629 68.9192 49.8436 68.9832 53.3715V53.3731Z"
          fill="#FF9CA6"/>
    <path d="M3.51387 69.3712C3.47867 71.3008 4.24506 73.0527 5.50583 74.3119C6.73781 75.5439 8.44017 76.3071 10.3217 76.3071H77.0628C78.682 76.3071 79.9955 77.619 79.9955 79.2398H9.74095C7.0498 79.2398 4.61465 78.1502 2.85308 76.3855C1.03552 74.5727 -0.0652583 72.0511 -0.00125958 69.2704C0.118738 63.9457 4.60825 59.7538 9.93454 59.7538H79.9955C79.9955 61.373 78.6836 62.6865 77.0628 62.6865H10.4753C6.73781 62.6865 3.58107 65.6337 3.51387 69.3712Z"
          fill="#FF9CA6"/>
    <path d="M68.475 50.7764H13.9033C13.7145 50.2052 13.4553 49.6532 13.1289 49.1284H67.4206C67.8542 49.6164 68.211 50.1716 68.475 50.7764Z"
          fill="white"/>
    <path d="M69.0151 53.3604C69.0151 53.7204 68.9847 54.074 68.9271 54.4196H14.2578C14.3314 53.874 14.349 53.3188 14.3042 52.7716H68.9879C69.0071 52.9636 69.0151 53.162 69.0151 53.3588V53.3604Z"
          fill="white"/>
    <path d="M68.2386 56.4178C67.9058 57.0354 67.4722 57.5922 66.9586 58.0658H12.8125C13.1885 57.5474 13.4941 56.9954 13.7261 56.4178H68.2386Z"
          fill="white"/>
    <path d="M74.0572 63.4882C73.5548 63.9953 73.1292 64.5473 72.7836 65.1361H5.09375C5.65054 64.4641 6.34012 63.901 7.11931 63.4882H74.0572Z"
          fill="white"/>
    <path d="M71.9792 66.9441C71.8097 67.4817 71.6961 68.0369 71.6385 68.5921H3.57422C3.64782 68.0177 3.79661 67.4657 4.00781 66.9441H71.9792Z"
          fill="white"/>
    <path d="M71.9792 72.0496H4.00781C3.79661 71.528 3.64782 70.976 3.57422 70.4016H71.6385C71.6961 70.9568 71.8081 71.5104 71.9792 72.0496Z"
          fill="white"/>
    <path d="M74.0575 75.5071H7.12126C6.52607 75.1919 5.98209 74.7871 5.5069 74.3135C5.3613 74.1679 5.2237 74.0175 5.0957 73.8607H72.7839C73.1295 74.4479 73.5551 74.9999 74.0575 75.5087V75.5071Z"
          fill="white"/>
    <path d="M23.7153 70.4205L18.929 68.4328L14.1428 70.4205C13.6526 70.6241 13.1133 70.2645 13.1133 69.7336V60H24.7414V69.7336C24.7414 70.2645 24.2021 70.6241 23.7119 70.4205H23.7153Z"
          fill="#EF1329"/>
    <defs>
        <linearGradient id="paint0_linear_1850_18921" x1="40.5449" y1="24.3753" x2="40.5449" y2="43.9493"
                        gradientUnits="userSpaceOnUse">
            <stop stop-color="#FFE1E4"/>
            <stop offset="1" stop-color="#FF9CA6"/>
        </linearGradient>
        <linearGradient id="paint1_linear_1850_18921" x1="37.17" y1="-2.64179" x2="34.4597" y2="7.35961"
                        gradientUnits="userSpaceOnUse">
            <stop stop-color="#FF9CA6" stop-opacity="0.64"/>
            <stop offset="1" stop-color="#FF9CA6" stop-opacity="0"/>
        </linearGradient>
        <linearGradient id="paint2_linear_1850_18921" x1="36.8279" y1="-0.520091" x2="36.8279" y2="22.0603"
                        gradientUnits="userSpaceOnUse">
            <stop stop-color="#FF9CA6" stop-opacity="0.64"/>
            <stop offset="1" stop-color="#FF9CA6" stop-opacity="0"/>
        </linearGradient>
    </defs>
</svg>
