<svg focusable="false" aria-hidden="true" viewBox="0 0 48 48" width="48" height="48" fill="none" xmlns="http://www.w3.org/2000/svg" class="MuiSvgIcon-root MuiSvgIcon-sizeMd buddhaworlds-light-1you3re"><path opacity="0.2" d="M35.872 41.452C32.9333 41.452 30.536 40.408 28.68 38.32C26.824 36.232 25.896 33.3707 25.896 29.736C25.896 24.7867 27.404 20.2627 30.42 16.164C33.5133 12.0653 38.6947 9.01067 45.964 7V12.568C43.644 13.3413 41.672 14.192 40.048 15.12C38.5013 15.9707 37.3413 16.976 36.568 18.136C35.7947 19.2187 35.408 20.5333 35.408 22.08C35.408 23.24 35.8333 24.1293 36.684 24.748C37.5347 25.3667 38.5013 25.9853 39.584 26.604C40.744 27.1453 41.7493 27.9573 42.6 29.04C43.4507 30.1227 43.876 31.7467 43.876 33.912C43.876 36.3093 43.1027 38.1653 41.556 39.48C40.0867 40.7947 38.192 41.452 35.872 41.452ZM11.976 41.452C9.11467 41.452 6.71733 40.408 4.784 38.32C2.928 36.232 2 33.3707 2 29.736C2 24.7867 3.508 20.2627 6.524 16.164C9.61733 12.0653 14.7987 9.01067 22.068 7V12.568C19.8253 13.3413 17.892 14.192 16.268 15.12C14.644 15.9707 13.4453 16.976 12.672 18.136C11.976 19.2187 11.628 20.5333 11.628 22.08C11.628 23.24 12.0533 24.1293 12.904 24.748C13.7547 25.3667 14.7213 25.9853 15.804 26.604C16.964 27.1453 17.9693 27.9573 18.82 29.04C19.6707 30.1227 20.096 31.7467 20.096 33.912C20.096 36.3093 19.3227 38.1653 17.776 39.48C16.2293 40.7947 14.296 41.452 11.976 41.452Z" fill="white"></path></svg>