<svg focusable="false" aria-hidden="true" viewBox="0 0 32 33" width="32" height="33" fill="none" xmlns="http://www.w3.org/2000/svg" class="MuiSvgIcon-root MuiSvgIcon-sizeMd buddhaworlds-light-4z70un"><path d="M16 0.9375C24.8367 0.9375 32 8.10077 32 16.9375C32 25.7742 24.8367 32.9375 16 32.9375C7.16327 32.9375 1.77174e-07 25.7742 0 16.9375C0 8.10077 7.16327 0.9375 16 0.9375ZM16.1875 7.9375C16.1875 7.94037 16.1612 20.429 16.1611 20.5039C16.1611 22.0457 14.8212 23.2607 13.3037 23.2607C11.7863 23.2607 10.5568 22.0114 10.5566 20.4697C10.5566 18.9279 11.7862 17.6787 13.3037 17.6787C13.4173 17.6787 13.5263 17.6985 13.6367 17.7119V15.0176C13.5263 15.0105 13.416 15 13.3037 15C10.3312 15 7.9209 17.4487 7.9209 20.4688C7.9209 23.4888 10.3312 25.9375 13.3037 25.9375C16.2762 25.9374 18.6865 23.4888 18.6865 20.4688V13.0693C19.533 14.377 20.9878 15.2422 22.6436 15.2422C22.7906 15.2422 22.9359 15.2332 23.0791 15.2197V12.2246C20.7915 12.0579 18.9613 10.2406 18.7227 7.9375H16.1875Z" fill="#EFE6B4"></path></svg>