<svg focusable="false" aria-hidden="true" viewBox="0 0 32 33" width="32" height="33" fill="none" xmlns="http://www.w3.org/2000/svg" class="MuiSvgIcon-root MuiSvgIcon-sizeMd buddhaworlds-light-4z70un"><g clip-path="url(#clip0_1711_2152)"><path d="M14.0068 19.1548L19.2114 16.1572L14.0068 13.1597V19.1548Z" fill="#EFE6B4"></path><path d="M16 0.157227C7.16479 0.157227 0 7.32202 0 16.1572C0 24.9924 7.16479 32.1572 16 32.1572C24.8352 32.1572 32 24.9924 32 16.1572C32 7.32202 24.8352 0.157227 16 0.157227ZM25.9976 16.1736C25.9976 16.1736 25.9976 19.4185 25.5859 20.9832C25.3552 21.8396 24.6799 22.5149 23.8235 22.7454C22.2588 23.1572 16 23.1572 16 23.1572C16 23.1572 9.75757 23.1572 8.17651 22.729C7.32007 22.4985 6.64478 21.823 6.41406 20.9666C6.0022 19.4185 6.0022 16.1572 6.0022 16.1572C6.0022 16.1572 6.0022 12.9126 6.41406 11.3479C6.64453 10.4915 7.33643 9.79956 8.17651 9.56909C9.74121 9.15723 16 9.15723 16 9.15723C16 9.15723 22.2588 9.15723 23.8235 9.58545C24.6799 9.81592 25.3552 10.4915 25.5859 11.3479C26.0142 12.9126 25.9976 16.1736 25.9976 16.1736Z" fill="#EFE6B4"></path></g><defs><clipPath id="clip0_1711_2152"><rect width="32" height="32" fill="white" transform="translate(0 0.157227)"></rect></clipPath></defs></svg>