<?xml version="1.0" encoding="UTF-8"?><svg id="Layer_1" xmlns="http://www.w3.org/2000/svg" xmlns:xlink="http://www.w3.org/1999/xlink" viewBox="0 0 239.893 48"><defs><clipPath id="clippath"><path d="M23.454,35.465c-.45,1.393-1.312,2.598-2.477,3.49-1.777,1.358-2.52,3.601-1.776,5.715.688,1.952,2.539,3.324,4.764,3.33h.028c.022,0,.044,0,.065,0,2.261-.032,4.112-1.493,4.735-3.455.683-2.148-.105-4.275-1.853-5.622-1.371-1.057-2.335-2.56-2.642-4.246l-.343-1.883c-.145.937-.219,1.799-.501,2.671" fill="none"/></clipPath><linearGradient id="linear-gradient" x1="828.388" y1="583.359" x2="829.011" y2="583.359" gradientTransform="translate(-65740.369 -93392.079) rotate(90) scale(112.734 -112.734)" gradientUnits="userSpaceOnUse"><stop offset="0" stop-color="#eee5b1"/><stop offset=".542" stop-color="#eee5b1"/><stop offset=".562" stop-color="#e6d09a"/><stop offset=".594" stop-color="#dcb780"/><stop offset=".63" stop-color="#d4a26a"/><stop offset=".672" stop-color="#ce9359"/><stop offset=".724" stop-color="#ca884d"/><stop offset=".797" stop-color="#c78146"/><stop offset="1" stop-color="#c78045"/><stop offset="1" stop-color="#c78045"/></linearGradient><clipPath id="clippath-1"><path d="M23.923,0C12.195.027,2.149,8.592.296,20.206c-.194,1.218-.291,2.435-.296,3.642v.186c.04,10.231,6.694,19.723,16.842,22.756C4.597,42.368-1.266,28.917,3.844,17.18,8.925,5.511,22.849.588,34.166,6.501c11.164,5.833,15.241,19.987,8.525,30.957-2.728,4.457-6.936,7.685-11.896,9.45,11.537-3.357,18.666-14.823,16.88-26.554C45.903,8.709,35.855.042,24.063,0h-.14Z" fill="none"/></clipPath><linearGradient id="linear-gradient-2" x1="828.7" y1="585.171" x2="829.323" y2="585.171" gradientTransform="translate(-78782.537 -111612.165) rotate(90) scale(134.673 -134.673)" gradientUnits="userSpaceOnUse"><stop offset="0" stop-color="#eee5b1"/><stop offset=".456" stop-color="#eee5b1"/><stop offset=".48" stop-color="#e6d09a"/><stop offset=".517" stop-color="#dcb780"/><stop offset=".56" stop-color="#d4a26a"/><stop offset=".61" stop-color="#ce9359"/><stop offset=".672" stop-color="#ca884d"/><stop offset=".759" stop-color="#c78146"/><stop offset="1" stop-color="#c78045"/><stop offset="1" stop-color="#c78045"/></linearGradient><clipPath id="clippath-2"><path d="M16.895,46.834c0,.037.03.068.068.068.037,0,.068-.031.068-.068s-.031-.068-.068-.068c-.038,0-.068.031-.068.068" fill="none"/></clipPath><linearGradient id="linear-gradient-3" x1="828.7" y1="585.204" x2="829.323" y2="585.204" gradientTransform="translate(-78798.092 -111609.18) rotate(89.998) scale(134.673 -134.673)" xlink:href="#linear-gradient-2"/><clipPath id="clippath-3"><path d="M17.215,46.941c0,.037.03.068.068.068.037,0,.067-.031.067-.068s-.03-.067-.067-.067c-.038,0-.068.03-.068.067" fill="none"/></clipPath><linearGradient id="linear-gradient-4" x1="828.7" y1="585.202" x2="829.323" y2="585.202" gradientTransform="translate(-78785.146 -111617.963) rotate(90.004) scale(134.673 -134.673)" xlink:href="#linear-gradient-2"/><clipPath id="clippath-4"><path d="M30.551,46.941c0,.037.031.068.067.068.038,0,.068-.031.068-.068s-.03-.067-.068-.067c-.037,0-.067.03-.067.067" fill="none"/></clipPath><linearGradient id="linear-gradient-5" x1="828.7" y1="585.142" x2="829.323" y2="585.142" gradientTransform="translate(-78779.253 -111607.334) rotate(89.996) scale(134.673 -134.673)" xlink:href="#linear-gradient-2"/><clipPath id="clippath-5"><path d="M17.642,47.048c0,.037.031.068.068.068s.067-.031.067-.068c0-.038-.03-.068-.067-.068s-.068.03-.068.068" fill="none"/></clipPath><linearGradient id="linear-gradient-6" x1="828.7" y1="585.2" x2="829.323" y2="585.2" gradientTransform="translate(-78796.711 -111609.328) rotate(89.998) scale(134.673 -134.673)" xlink:href="#linear-gradient-2"/><clipPath id="clippath-6"><path d="M30.231,47.048c0,.037.03.068.067.068s.067-.031.067-.068c0-.038-.03-.068-.067-.068s-.067.03-.067.068" fill="none"/></clipPath><linearGradient id="linear-gradient-7" x1="828.7" y1="585.144" x2="829.323" y2="585.144" gradientTransform="translate(-78761.051 -111620.536) rotate(90.006) scale(134.673 -134.673)" xlink:href="#linear-gradient-2"/><clipPath id="clippath-7"><path d="M60.355,33.706l.002-10.172h.08c.263,0,.522-.002.778-.003.969-.004,1.896-.009,2.836.05,1.588.1,2.766,1.156,3.082,2.72.318,1.576.312,3.186-.062,4.799-.345,1.335-1.251,2.233-2.547,2.468-.821.149-1.649.207-2.481.207-.561,0-1.124-.027-1.688-.069M60.357,23.208l-.003-9.189c2.187-.07,5.236-.357,5.911,2.499.319,1.353.363,2.747.055,4.16-.499,2.291-2.475,2.553-4.395,2.553-.538,0-1.072-.021-1.568-.022M63.087,13.715l-8.255.013c.599.536,1.199.16,1.762.484.581.334.94.82.94,1.57l-.002,16.082c0,.983-.63,1.606-1.508,1.803-.122.027-.249.024-.376.019-.283-.008-.564-.017-.784.319h7.688c1.496,0,2.907-.019,4.317-.482,1.32-.434,2.487-1.225,3.04-2.612,1.054-2.641.29-6.009-2.661-7.061-.996-.355-1.993-.445-3.077-.582,2.702-.245,5.195-1.237,5.34-4.497.084-1.916-.829-3.549-2.59-4.29-1.19-.501-2.471-.767-3.819-.767h-.017Z" fill="none"/></clipPath><linearGradient id="linear-gradient-8" x1="827.401" y1="579.572" x2="828.024" y2="579.572" gradientTransform="translate(-49107.925 -70207.02) rotate(90) scale(84.84 -84.84)" gradientUnits="userSpaceOnUse"><stop offset="0" stop-color="#eee5b1"/><stop offset=".663" stop-color="#eee5b1"/><stop offset=".678" stop-color="#eadca7"/><stop offset=".741" stop-color="#ddbb84"/><stop offset=".805" stop-color="#d3a168"/><stop offset=".87" stop-color="#cc8e54"/><stop offset=".934" stop-color="#c88348"/><stop offset="1" stop-color="#c78045"/><stop offset="1" stop-color="#c78045"/></linearGradient><clipPath id="clippath-8"><path d="M93.781,33.173c-1.713-1.744-1.416-7.34-1.162-9.673.198-1.815.912-3.641,2.979-3.642,2.219,0,3.097,1.93,3.381,3.897.364,2.52.714,9.283-2.596,10.022-.28.063-.559.097-.83.097-.666,0-1.286-.206-1.772-.701M96.932,13.771c.23.357.539.273.858.313.772.098,1.388.71,1.394,1.584l.052,7.65c-.532-2.222-1.399-3.762-3.96-3.869-2.217-.092-4.048,1.087-4.782,3.256-.825,2.437-.83,6.152.131,8.563.76,1.908,2.406,3.042,4.483,3.012,2.621-.039,3.483-1.528,4.073-3.766l.065,3.511,4.81-.034c-.364-.414-.76-.213-1.163-.356-.676-.144-1.233-.735-1.233-1.553l-.011-18.33-4.716.019Z" fill="none"/></clipPath><linearGradient id="linear-gradient-9" x1="827.401" y1="579.322" x2="828.024" y2="579.322" gradientTransform="translate(-49052.728 -70207.02) rotate(90) scale(84.84 -84.84)" xlink:href="#linear-gradient-8"/><clipPath id="clippath-9"><path d="M121.014,13.764c.082.209.303.3.536.291.93-.037,1.702.637,1.703,1.687l.009,16.163c0,.651-.31,1.246-.753,1.566-.537.388-1.135.002-1.693.517h7.266c-.537-.513-1.122-.136-1.634-.542-.403-.319-.703-.911-.703-1.504l-.007-7.842c0-.959.24-1.915.645-2.721.545-1.086,1.546-1.561,2.69-1.52,1.021.036,1.883.488,2.263,1.543.233.648.401,1.351.402,2.046l.006,10.574,4.613-.026c-.49-.539-1.016-.153-1.471-.534-.428-.359-.672-.968-.674-1.597l-.019-7.538c-.002-.853-.153-1.691-.432-2.463-.868-2.414-3.804-2.763-5.833-2.151-1.166.352-1.835,1.3-2.196,2.519l-.006-8.474-4.711.006Z" fill="none"/></clipPath><linearGradient id="linear-gradient-10" y1="579.098" x2="828.024" y2="579.098" gradientTransform="translate(-49001.967 -70207.02) rotate(90) scale(84.84 -84.84)" xlink:href="#linear-gradient-8"/><clipPath id="clippath-10"><path d="M109.825,33.212c-1.779-1.573-1.456-7.536-1.197-9.79.207-1.802.922-3.539,2.941-3.564,2.218-.027,3.11,1.903,3.401,3.856.36,2.415.426,6.168-.69,8.477-.523,1.08-1.591,1.7-2.664,1.7-.633,0-1.267-.216-1.791-.679M112.924,13.77c.224.362.535.275.841.311.789.093,1.409.699,1.414,1.589l.043,7.66c-.565-2.459-1.51-3.795-4.077-3.876-2.145-.068-3.9,1.115-4.628,3.184-.859,2.444-.857,6.17.095,8.607.784,2.005,2.53,3.115,4.691,3.037,2.453-.088,3.358-1.649,3.913-3.926l.01,3.668,4.807-.024c-.355-.463-.762-.225-1.174-.352-.663-.202-1.201-.752-1.201-1.571l-.007-18.321-4.728.014Z" fill="none"/></clipPath><linearGradient id="linear-gradient-11" x1="827.401" y1="579.208" x2="828.024" y2="579.208" gradientTransform="translate(-49027.058 -70207.02) rotate(90) scale(84.84 -84.84)" xlink:href="#linear-gradient-8"/><clipPath id="clippath-11"><path d="M80.921,19.816l1.516.428c.445.336.75.907.75,1.54l.002,7.315c0,1.055-.236,2.088-.643,2.996-.547,1.221-1.644,1.844-2.927,1.806-.944-.027-1.746-.513-2.045-1.492-.239-.786-.377-1.66-.377-2.537l-.01-10.137-4.741.07,1.715.546c.286.397.56.887.561,1.42l.021,7.777c.002.735.153,1.467.365,2.144.764,2.439,3.509,2.933,5.575,2.4,1.722-.445,2.319-1.98,2.697-3.655l.011,3.588,4.48-.022c-.117-.298-.305-.298-.513-.296-.031,0-.062,0-.094,0-.856-.022-1.587-.627-1.589-1.673l-.022-12.301-4.733.086Z" fill="none"/></clipPath><linearGradient id="linear-gradient-12" x1="827.401" y1="579.443" x2="828.024" y2="579.443" gradientTransform="translate(-49079.725 -70207.02) rotate(90) scale(84.84 -84.84)" xlink:href="#linear-gradient-8"/><clipPath id="clippath-12"><path d="M142.351,33.769c-1.819-.549-1.64-3.651-1.292-5.068.617-2.473,3.338-2.213,5.349-2.323l.002,3.837c0,.935-.311,1.802-.862,2.521-.595.723-1.436,1.161-2.345,1.161-.279,0-.564-.041-.851-.128M140.783,20.066c-1.18.494-1.807,1.865-1.104,2.963.391.608,1.339.711,1.919.603.116-1.365.002-3.414,1.453-3.778.691-.173,1.469-.186,2.135.1.646.277.985.978,1.074,1.69.184,1.469.162,2.906.145,4.405l-2.884.14c-1.081.052-2.137.292-3.098.709-1.398.605-2.144,1.882-2.124,3.486.019,1.629.824,2.968,2.283,3.531,1.206.466,2.555.501,3.77.045,1.173-.442,1.822-1.429,2.254-2.664l.024,2.73,3.962-.024c.135-.523-1.718.08-1.722-1.584l-.026-8.978c-.002-.861-.26-1.717-.704-2.405-.745-1.153-2.361-1.583-3.991-1.583-1.239,0-2.486.248-3.364.616" fill="none"/></clipPath><linearGradient id="linear-gradient-13" x1="827.401" y1="578.985" x2="828.024" y2="578.985" gradientTransform="translate(-48976.5 -70207.02) rotate(90) scale(84.84 -84.84)" xlink:href="#linear-gradient-8"/><clipPath id="clippath-13"><path d="M151.497,15.199l5.787,18.821,1.784-.018,4.252-16.906,5.67,16.894,1.733.029,4.917-18.336c.164-.612.527-1.14.98-1.465.516-.371,1.108.049,1.63-.471l-5.675-.004c.321.551,2.639-.172,2.672,1.42.007.392-.012.825-.122,1.233l-4.152,15.546-1.795-5.894-4.122-12.09c-.431-.031-.787-.03-1.245.004l-4.522,17.618c-.369-1.636-.653-3.082-1.123-4.617l-3.245-10.599c-.121-.397-.184-.826-.22-1.197-.157-1.632,2.321-.858,2.51-1.439l-8.051-.011c-.172.658,1.792-.286,2.337,1.485" fill="none"/></clipPath><linearGradient id="linear-gradient-14" x1="827.388" y1="578.801" x2="828.011" y2="578.801" gradientTransform="translate(-48796.825 -69998.577) rotate(90) scale(84.589 -84.589)" xlink:href="#linear-gradient-8"/><clipPath id="clippath-14"><path d="M180.3,29.88c-.265-2.406-.31-5.931.531-8.183.487-1.3,1.651-1.951,3.023-1.929,2.345.037,3.146,1.797,3.406,3.853.264,2.093.264,4.158.034,6.258-.219,2.011-.936,4.072-3.382,4.133-.039.001-.077.002-.116.002-2.494,0-3.267-2.064-3.496-4.135M181.764,19.746c-1.844.45-3.208,1.779-3.752,3.608-.649,2.181-.651,4.518-.08,6.722.7,2.706,3.138,4.365,5.923,4.154,2.756.128,5.018-1.285,5.769-3.978.6-2.156.605-4.454.029-6.612-.759-2.841-3.166-4.149-5.822-4.149-.681,0-1.377.085-2.067.253" fill="none"/></clipPath><linearGradient id="linear-gradient-15" x1="827.388" y1="578.658" x2="828.011" y2="578.658" gradientTransform="translate(-48764.555 -69998.577) rotate(90) scale(84.589 -84.589)" xlink:href="#linear-gradient-8"/><clipPath id="clippath-15"><path d="M204.468,13.845c.416.39.862.202,1.315.338.706.13,1.28.728,1.28,1.538v16.383c0,.84-.615,1.459-1.364,1.553-.161.079-.334.073-.505.067-.263-.009-.52-.019-.706.283l7.776-.012c-.366-.396-.801-.228-1.242-.306-.754-.133-1.408-.722-1.409-1.612l-.012-18.255-5.133.024Z" fill="none"/></clipPath><linearGradient id="linear-gradient-16" x1="827.388" y1="578.482" x2="828.011" y2="578.482" gradientTransform="translate(-48725.105 -69998.577) rotate(90) scale(84.589 -84.589)" xlink:href="#linear-gradient-8"/><clipPath id="clippath-16"><path d="M218,33.204c-.65-.617-.967-1.513-1.119-2.416-.402-2.39-.384-4.783-.114-7.201.204-1.823.903-3.645,3.019-3.684,2.306-.042,3.215,1.864,3.53,3.832.399,2.502.747,9.237-2.616,10.029-.308.073-.615.113-.913.113-.666,0-1.287-.199-1.787-.674M221.223,13.831c.22.295.409.272.635.303,1.024-.005,1.682.721,1.685,1.722l.029,7.519c-.56-2.458-1.558-3.858-4.348-3.874-2.16-.012-3.959,1.186-4.644,3.287-.836,2.565-.833,5.464-.029,8.033.714,2.283,2.653,3.579,5.07,3.457,2.624-.133,3.445-1.86,3.947-3.952l.036,3.704,5.012-.034c-.384-.437-.797-.197-1.232-.346-.672-.133-1.289-.704-1.29-1.492l-.011-18.339-4.86.012Z" fill="none"/></clipPath><linearGradient id="linear-gradient-17" x1="827.388" y1="578.388" x2="828.011" y2="578.388" gradientTransform="translate(-48704.367 -69998.577) rotate(90) scale(84.589 -84.589)" xlink:href="#linear-gradient-8"/><clipPath id="clippath-17"><path d="M235.01,19.546c-2.415.053-4.635,1.001-4.647,3.699-.016,3.608,3.815,3.962,6.448,5.644,1.415.903,1.261,3.228.408,4.188-.637.717-1.592.938-2.546.934-2.484-.011-2.766-2.372-2.808-4.345-.963-.067-1.663.722-1.69,1.665-.029,1,.458,1.795,1.342,2.277,2.132,1.162,7.939,1.187,8.342-2.829.022-.227.034-.445.035-.656v-.031c-.004-1.737-.784-2.925-2.553-3.731l-3.443-1.567c-1.084-.493-1.562-1.416-1.551-2.532.014-1.417.905-2.346,2.333-2.465,1.141-.095,2.177.369,2.471,1.561.169.689.228,1.418.277,2.182.674.082,1.441-.206,1.75-.847.392-.816.047-1.72-.661-2.261-.932-.712-2.068-.889-3.232-.889-.091,0-.182,0-.273.003" fill="none"/></clipPath><linearGradient id="linear-gradient-18" x1="827.388" y1="578.291" x2="828.011" y2="578.291" gradientTransform="translate(-48682.287 -69998.577) rotate(90) scale(84.589 -84.589)" xlink:href="#linear-gradient-8"/><clipPath id="clippath-18"><path d="M197.885,20.967c-.273.455-.469.935-.665,1.385l-.022-2.579-4.83.055c.45.306.859.224,1.301.374.6.204,1.025.809,1.025,1.505l-.002,10.377c0,2.101-2.609,1.386-2.637,1.918l7.737-.012c-.392-.367-.771-.246-1.181-.319-.76-.136-1.356-.725-1.356-1.568v-7.405c.001-1.362.336-4.21,2.101-4.256,1.574-.041,1.915,1.557,1.963,2.908.408-.032.876-.08,1.243-.191.816-.247,1.233-.985,1.222-1.741-.011-.76-.481-1.429-1.284-1.696-.453-.15-.977-.234-1.513-.234-1.204,0-2.466.424-3.1,1.479" fill="none"/></clipPath><linearGradient id="linear-gradient-19" x1="827.388" y1="578.557" x2="828.011" y2="578.557" gradientTransform="translate(-48741.88 -69998.577) rotate(90) scale(84.589 -84.589)" xlink:href="#linear-gradient-8"/><clipPath id="clippath-19"><path d="M223.114,46.72c-.339-1.353-.323-2.791-.045-4.155.158-.779.729-1.274,1.476-1.292.777-.018,1.404.468,1.57,1.279.265,1.296.678,5.299-1.478,5.335-.009,0-.018,0-.027,0-.687,0-1.313-.44-1.495-1.167M221.833,43.046c-.249.925-.246,1.922-.044,2.853.292,1.341,1.427,2.096,2.783,2.101h.028c.029,0,.059,0,.089-.001,1.31-.037,2.397-.701,2.695-2.035.43-1.924.15-4.434-2.258-4.78-.189-.027-.378-.04-.565-.04-1.236,0-2.378.602-2.728,1.903" fill="none"/></clipPath><linearGradient id="linear-gradient-20" x1="830.105" y1="588.259" x2="830.728" y2="588.259" gradientTransform="translate(-134564.41 -190256.21) rotate(90) scale(229.132 -229.132)" xlink:href="#linear-gradient-2"/><clipPath id="clippath-20"><path d="M217.822,41.185c-2.537.243-2.661,3.208-2.176,4.962.31,1.119,1.251,1.77,2.418,1.837.8.045,1.644-.079,2.19-.661.291-.309.398-.805-.011-.998-.171.932-.809,1.564-1.7,1.561-.858-.004-1.536-.526-1.707-1.464-.225-1.239-.447-4.308.761-4.982.342-.191.696-.236,1.031-.105.242.095.549.421.589.727l.138,1.065c.269.164.895-.062,1.013-.339.167-.392.059-.871-.306-1.13-.509-.359-1.148-.496-1.786-.496-.153,0-.305.007-.455.022" fill="none"/></clipPath><linearGradient id="linear-gradient-21" x1="830.105" y1="588.276" x2="830.728" y2="588.276" gradientTransform="translate(-134575.056 -190256.21) rotate(90) scale(229.132 -229.132)" xlink:href="#linear-gradient-2"/><clipPath id="clippath-21"><path d="M236.674,41.15c-.941.012-1.616.458-1.873,1.493-.26-1.029-1.069-1.508-2.091-1.485-.823.019-1.525.38-1.771,1.227l-.079-1.11-2.231.069c.335.104.618.176.831.27.163.071.255.452.255.65l-.002,4.693c0,.624-.518.683-1.096.911l3.353.003-.789-.336c-.167-.072-.272-.489-.27-.676l.026-3.823c.004-.534.281-1.164.737-1.447.41-.255,1.084-.248,1.479.04.345.253.527.82.529,1.255l.022,4.991,2.229-.012c-.496-.227-1.036-.279-1.037-.848v-3.893c0-.58.233-1.214.739-1.535.401-.255,1.094-.257,1.469.059.351.296.496.881.498,1.348l.02,4.879,2.27-.011c-.584-.215-1.079-.284-1.088-.916l-.052-3.99c-.016-1.154-.963-1.807-2.044-1.807h-.034" fill="none"/></clipPath><linearGradient id="linear-gradient-22" x1="830.105" y1="588.233" x2="830.728" y2="588.233" gradientTransform="translate(-134548.901 -190256.21) rotate(90) scale(229.132 -229.132)" xlink:href="#linear-gradient-2"/><clipPath id="clippath-22"><path d="M212.745,46.398c-.168.131-.264.491-.268.737-.007.504.25.826.701.817.422-.007.698-.326.676-.85-.011-.255-.115-.623-.289-.723-.099-.057-.252-.087-.404-.087-.163,0-.325.034-.416.106" fill="none"/></clipPath><linearGradient id="linear-gradient-23" x1="830.105" y1="588.289" x2="830.728" y2="588.289" gradientTransform="translate(-134582.764 -190256.21) rotate(90) scale(229.132 -229.132)" xlink:href="#linear-gradient-2"/></defs><g clip-path="url(#clippath)"><rect x="18.456" y="32.794" width="11.019" height="15.206" fill="url(#linear-gradient)"/></g><g clip-path="url(#clippath-1)"><rect x="-1.827" y="-.608" width="51.849" height="48.124" transform="translate(-.561 .591) rotate(-1.389)" fill="url(#linear-gradient-2)"/></g><g clip-path="url(#clippath-2)"><rect x="16.894" y="46.765" width=".139" height=".139" transform="translate(-1.128 .424) rotate(-1.387)" fill="url(#linear-gradient-3)"/></g><g clip-path="url(#clippath-3)"><rect x="17.214" y="46.872" width=".138" height=".138" transform="translate(-1.136 .434) rotate(-1.393)" fill="url(#linear-gradient-4)"/></g><g clip-path="url(#clippath-4)"><rect x="30.549" y="46.872" width=".138" height=".138" transform="translate(-1.126 .754) rotate(-1.385)" fill="url(#linear-gradient-5)"/></g><g clip-path="url(#clippath-5)"><rect x="17.64" y="46.978" width=".138" height=".139" transform="translate(-1.133 .442) rotate(-1.387)" fill="url(#linear-gradient-6)"/></g><g clip-path="url(#clippath-6)"><rect x="30.229" y="46.978" width=".138" height=".139" transform="translate(-1.136 .751) rotate(-1.395)" fill="url(#linear-gradient-7)"/></g><g clip-path="url(#clippath-7)"><rect x="54.832" y="13.662" width="16.132" height="20.344" fill="url(#linear-gradient-8)"/></g><g clip-path="url(#clippath-8)"><rect x="89.664" y="13.753" width="14.392" height="20.557" fill="url(#linear-gradient-9)"/></g><g clip-path="url(#clippath-9)"><rect x="120.816" y="13.758" width="15.54" height="20.264" fill="url(#linear-gradient-10)"/></g><g clip-path="url(#clippath-10)"><rect x="105.658" y="13.756" width="14.376" height="20.605" fill="url(#linear-gradient-11)"/></g><g clip-path="url(#clippath-11)"><rect x="72.446" y="19.73" width="15.425" height="14.894" fill="url(#linear-gradient-12)"/></g><g clip-path="url(#clippath-12)"><rect x="138.278" y="19.45" width="12.448" height="14.965" fill="url(#linear-gradient-13)"/></g><g clip-path="url(#clippath-13)"><rect x="148.988" y="13.429" width="29.262" height="20.591" fill="url(#linear-gradient-14)"/></g><g clip-path="url(#clippath-14)"><rect x="177.361" y="19.493" width="12.869" height="14.95" fill="url(#linear-gradient-15)"/></g><g clip-path="url(#clippath-15)"><rect x="204.468" y="13.821" width="7.796" height="20.185" fill="url(#linear-gradient-16)"/></g><g clip-path="url(#clippath-16)"><rect x="213.742" y="13.819" width="14.873" height="20.581" fill="url(#linear-gradient-17)"/></g><g clip-path="url(#clippath-17)"><rect x="230.145" y="19.543" width="9.747" height="15.25" fill="url(#linear-gradient-18)"/></g><g clip-path="url(#clippath-18)"><rect x="192.055" y="19.489" width="11.739" height="14.697" fill="url(#linear-gradient-19)"/></g><g clip-path="url(#clippath-19)"><rect x="221.585" y="41.143" width="6.229" height="6.857" fill="url(#linear-gradient-20)"/></g><g clip-path="url(#clippath-20)"><rect x="215.161" y="41.162" width="5.491" height="6.867" fill="url(#linear-gradient-21)"/></g><g clip-path="url(#clippath-21)"><rect x="228.618" y="41.135" width="11.274" height="6.739" fill="url(#linear-gradient-22)"/></g><g clip-path="url(#clippath-22)"><rect x="212.47" y="46.292" width="1.406" height="1.669" fill="url(#linear-gradient-23)"/></g></svg>